<?xml version="1.0" encoding="utf-8"?>
<!-- Generator: Adobe Illustrator 16.0.0, SVG Export Plug-In . SVG Version: 6.00 Build 0)  -->
<!DOCTYPE svg PUBLIC "-//W3C//DTD SVG 1.1//EN" "http://www.w3.org/Graphics/SVG/1.1/DTD/svg11.dtd">
<svg version="1.1" id="Layer_1" xmlns="http://www.w3.org/2000/svg" xmlns:xlink="http://www.w3.org/1999/xlink" x="0px" y="0px"
	 width="1281.07px" height="924.23px" viewBox="0 0 1281.07 924.23" enable-background="new 0 0 1281.07 924.23"
	 xml:space="preserve">

<defs>
    <filter id="blurry-filter" x="-100%" y="-100%" width="400%" height="400%" filterUnits="objectBoundingBox" primitiveUnits="userSpaceOnUse" color-interpolation-filters="sRGB">
    <feGaussianBlur stdDeviation="16 32" x="0%" y="0%" width="100%" height="100%" in="SourceGraphic" edgeMode="none" result="blur"></feGaussianBlur>
    </filter>
</defs>
<g filter="url(#blurry-filter)">

<g>
	<rect x="0" y="849.505" fill="#231F20" width="1281.07" height="74.725"/>
	<g>
		<g>
			<path fill="#FFFFFF" d="M511.407,878.626h2.871c2.258,0,4.119,0.594,5.581,1.783c1.472,1.177,2.207,2.87,2.207,5.079
				c0,2.274-0.727,4.009-2.191,5.21c-1.456,1.205-3.341,1.806-5.649,1.806h-2.818V878.626z M513.139,890.926h0.604
				c0.9,0,1.746-0.093,2.546-0.273c0.793-0.176,1.494-0.48,2.088-0.903c0.597-0.421,1.073-0.975,1.425-1.653
				c0.358-0.684,0.535-1.528,0.535-2.534c0-0.99-0.176-1.836-0.525-2.55c-0.348-0.703-0.837-1.253-1.464-1.65
				c-0.626-0.398-1.315-0.694-2.073-0.882c-0.754-0.181-1.593-0.28-2.532-0.28h-0.604V890.926z"/>
			<path fill="#FFFFFF" d="M524.606,888.472c0.023,0.769,0.272,1.441,0.737,2.01c0.48,0.563,1.096,0.842,1.858,0.842
				c0.604,0,1.097-0.132,1.485-0.41c0.386-0.277,0.754-0.699,1.096-1.264l1.398,0.794c-0.404,0.737-0.958,1.312-1.666,1.729
				c-0.703,0.414-1.483,0.63-2.33,0.63c-1.287,0-2.32-0.433-3.091-1.29c-0.764-0.875-1.143-1.95-1.143-3.24
				c0-1.356,0.36-2.482,1.085-3.357c0.712-0.857,1.747-1.286,3.112-1.286c1.325,0,2.324,0.429,3.002,1.286
				c0.686,0.859,1.029,1.957,1.029,3.302v0.255H524.606z M529.526,887.22c-0.101-0.663-0.348-1.192-0.764-1.573
				c-0.415-0.384-0.949-0.589-1.612-0.589c-0.319,0-0.617,0.057-0.892,0.164c-0.279,0.101-0.521,0.257-0.742,0.446
				c-0.208,0.202-0.387,0.438-0.529,0.697c-0.143,0.263-0.236,0.554-0.284,0.854H529.526z"/>
			<path fill="#FFFFFF" d="M536.061,885.865c-0.25-0.509-0.614-0.757-1.102-0.757c-0.231,0-0.443,0.077-0.629,0.245
				c-0.186,0.163-0.274,0.371-0.274,0.6c0,0.223,0.07,0.407,0.211,0.556c0.142,0.156,0.333,0.302,0.576,0.439
				c0.163,0.07,0.285,0.132,0.372,0.169c0.083,0.045,0.227,0.109,0.424,0.195c0.098,0.046,0.186,0.092,0.26,0.111
				c0.069,0.026,0.125,0.042,0.162,0.074c0.613,0.279,1.099,0.61,1.455,0.975c0.357,0.371,0.533,0.859,0.533,1.478
				c0,0.812-0.293,1.49-0.883,2.039c-0.576,0.546-1.267,0.814-2.083,0.814c-0.329,0-0.65-0.048-0.954-0.141
				c-0.31-0.091-0.597-0.221-0.858-0.389c-0.265-0.171-0.494-0.365-0.703-0.605c-0.201-0.24-0.359-0.509-0.463-0.807l1.417-0.638
				c0.399,0.734,0.924,1.1,1.56,1.1c0.261,0,0.5-0.067,0.722-0.205c0.219-0.142,0.38-0.322,0.487-0.541
				c0.104-0.214,0.125-0.442,0.064-0.694c-0.061-0.254-0.254-0.496-0.572-0.712l-1.622-0.866c-0.284-0.146-0.524-0.286-0.735-0.437
				c-0.208-0.153-0.382-0.312-0.515-0.475c-0.135-0.168-0.237-0.35-0.302-0.552c-0.066-0.2-0.103-0.437-0.103-0.712
				c0-0.698,0.243-1.28,0.739-1.765c0.487-0.493,1.091-0.736,1.803-0.736c1.078,0,1.865,0.506,2.357,1.511L536.061,885.865z"/>
			<path fill="#FFFFFF" d="M542.009,879.947c0,0.311-0.11,0.57-0.333,0.798c-0.221,0.219-0.491,0.317-0.811,0.317
				c-0.321,0-0.587-0.099-0.809-0.317c-0.22-0.228-0.332-0.487-0.332-0.798c0-0.318,0.111-0.588,0.332-0.824
				c0.222-0.229,0.488-0.332,0.809-0.332c0.319,0,0.59,0.104,0.811,0.332C541.899,879.359,542.009,879.628,542.009,879.947z
				 M541.691,892.504h-1.659v-8.619h1.659V892.504z"/>
			<path fill="#FFFFFF" d="M552.414,892.343c0,1.618-0.312,2.87-0.924,3.769c-0.609,0.888-1.708,1.327-3.276,1.327
				c-1.213,0-2.21-0.35-2.982-1.052c-0.761-0.698-1.159-1.647-1.179-2.85h1.653c0,0.77,0.243,1.364,0.712,1.793
				c0.47,0.428,1.094,0.636,1.872,0.636c0.943,0,1.59-0.277,1.941-0.828c0.347-0.556,0.522-1.336,0.522-2.335v-1.644h-0.034
				c-0.346,0.518-0.77,0.92-1.28,1.206c-0.51,0.293-1.062,0.438-1.648,0.438c-1.279,0-2.284-0.449-3.022-1.346
				c-0.734-0.9-1.103-2.006-1.103-3.315c0-1.245,0.373-2.3,1.121-3.17c0.753-0.893,1.725-1.343,2.928-1.343
				c1.267,0,2.267,0.581,3.004,1.733h0.034v-1.478h1.661V892.343z M548.047,891.324c0.871,0,1.552-0.295,2.042-0.902
				c0.505-0.607,0.755-1.355,0.755-2.227c0-0.854-0.25-1.59-0.755-2.192c-0.49-0.598-1.171-0.895-2.042-0.895
				c-0.822,0-1.483,0.298-1.99,0.917c-0.487,0.603-0.736,1.321-0.736,2.17c0,0.871,0.249,1.615,0.736,2.209
				C546.563,891.019,547.225,891.324,548.047,891.324z"/>
			<path fill="#FFFFFF" d="M556.227,885.044h0.029c0.249-0.45,0.608-0.805,1.073-1.045c0.462-0.247,0.976-0.37,1.526-0.37
				c0.564,0,1.042,0.089,1.437,0.256c0.395,0.173,0.708,0.42,0.95,0.739c0.238,0.319,0.41,0.712,0.511,1.166
				c0.109,0.465,0.157,0.986,0.157,1.578v5.136h-1.652v-4.932c0-0.853-0.126-1.467-0.371-1.862
				c-0.246-0.406-0.754-0.603-1.526-0.603c-0.287,0-0.523,0.023-0.722,0.077c-0.197,0.057-0.365,0.138-0.513,0.237
				c-0.148,0.107-0.269,0.233-0.371,0.359c-0.094,0.134-0.189,0.284-0.271,0.446c-0.038,0.082-0.076,0.192-0.104,0.329
				c-0.031,0.13-0.056,0.272-0.082,0.418c-0.024,0.139-0.048,0.276-0.059,0.419c-0.009,0.146-0.013,0.253-0.013,0.341v0.813v3.956
				h-1.661v-8.619h1.661V885.044z"/>
			<path fill="#FFFFFF" d="M569.388,876.522h1.657v8.801h0.035c0.764-1.127,1.762-1.693,3.004-1.693c1.205,0,2.177,0.45,2.929,1.343
				c0.748,0.87,1.123,1.925,1.123,3.17c0,1.31-0.375,2.415-1.106,3.315c-0.741,0.896-1.741,1.346-3.018,1.346
				c-0.588,0-1.14-0.145-1.652-0.438c-0.508-0.286-0.935-0.688-1.28-1.206h-0.035v1.345h-1.657V876.522z M573.675,891.324
				c0.877,0,1.556-0.295,2.05-0.902c0.503-0.607,0.75-1.355,0.75-2.227c0-0.854-0.247-1.59-0.75-2.192
				c-0.494-0.598-1.173-0.895-2.05-0.895c-0.823,0-1.483,0.298-1.987,0.917c-0.492,0.603-0.734,1.321-0.734,2.17
				c0,0.871,0.243,1.615,0.734,2.209C572.191,891.019,572.852,891.324,573.675,891.324z"/>
			<path fill="#FFFFFF" d="M578.374,883.885h1.933l2.908,5.474l2.705-5.474h1.864l-6.979,13.554h-1.88l3.389-6.41L578.374,883.885z"
				/>
			<path fill="#FFFFFF" d="M596.142,889.021l-1.584,3.483h-1.861l6.631-14.472l6.624,14.472h-1.856l-1.579-3.483H596.142z
				 M599.327,881.829l-2.473,5.613h4.938L599.327,881.829z"/>
			<path fill="#FFFFFF" d="M608.662,892.504h-1.655v-15.982h1.655V892.504z"/>
			<path fill="#FFFFFF" d="M612.75,892.504h-1.658v-15.982h1.658V892.504z"/>
			<path fill="#FFFFFF" d="M619.045,885.916v1.379h-4.032v-1.379H619.045z"/>
			<path fill="#FFFFFF" d="M625.484,878.201c-0.512-0.234-0.878-0.351-1.099-0.351c-0.36,0-0.614,0.108-0.771,0.338
				c-0.162,0.226-0.272,0.503-0.334,0.839c-0.036,0.243-0.055,0.438-0.069,0.58c-0.002,0.145-0.002,0.335-0.002,0.585v3.693h2.275
				v1.547h-2.275v7.072h-1.663v-7.072h-0.751v-1.547h0.751v-4.192c0-2.26,0.929-3.395,2.787-3.395c0.404,0,0.789,0.081,1.151,0.224
				V878.201z"/>
			<path fill="#FFFFFF" d="M628.045,885.284h0.056c0.21-0.511,0.511-0.918,0.923-1.211c0.409-0.294,0.886-0.443,1.437-0.443
				c0.459,0,0.906,0.141,1.369,0.426l-0.758,1.507c-0.271-0.239-0.611-0.348-1.013-0.348c-0.854,0-1.414,0.346-1.697,1.031
				c-0.123,0.319-0.209,0.636-0.249,0.947c-0.039,0.309-0.067,0.676-0.067,1.08v4.231h-1.65v-8.619h1.65V885.284z"/>
			<path fill="#FFFFFF" d="M633.742,888.472c0.02,0.769,0.269,1.441,0.738,2.01c0.476,0.563,1.091,0.842,1.855,0.842
				c0.594,0,1.098-0.132,1.482-0.41c0.386-0.277,0.753-0.699,1.092-1.264l1.398,0.794c-0.4,0.737-0.955,1.312-1.661,1.729
				c-0.706,0.414-1.485,0.63-2.331,0.63c-1.284,0-2.319-0.433-3.087-1.29c-0.764-0.875-1.145-1.95-1.145-3.24
				c0-1.356,0.362-2.482,1.083-3.357c0.712-0.857,1.747-1.286,3.111-1.286c1.326,0,2.329,0.429,3.008,1.286
				c0.681,0.859,1.021,1.957,1.021,3.302v0.255H633.742z M638.657,887.22c-0.101-0.663-0.354-1.192-0.764-1.573
				c-0.411-0.384-0.946-0.589-1.614-0.589c-0.32,0-0.614,0.057-0.893,0.164c-0.272,0.101-0.522,0.257-0.731,0.446
				c-0.219,0.202-0.396,0.438-0.543,0.697c-0.137,0.263-0.231,0.554-0.277,0.854H638.657z"/>
			<path fill="#FFFFFF" d="M642.732,888.472c0.021,0.769,0.265,1.441,0.73,2.01c0.475,0.563,1.1,0.842,1.858,0.842
				c0.603,0,1.1-0.132,1.481-0.41c0.389-0.277,0.75-0.699,1.099-1.264l1.395,0.794c-0.396,0.737-0.949,1.312-1.662,1.729
				c-0.71,0.414-1.482,0.63-2.331,0.63c-1.293,0-2.319-0.433-3.098-1.29c-0.756-0.875-1.135-1.95-1.135-3.24
				c0-1.356,0.357-2.482,1.089-3.357c0.707-0.857,1.748-1.286,3.11-1.286c1.318,0,2.323,0.429,2.994,1.286
				c0.694,0.859,1.032,1.957,1.032,3.302v0.255H642.732z M647.644,887.22c-0.096-0.663-0.356-1.192-0.771-1.573
				c-0.408-0.384-0.941-0.589-1.604-0.589c-0.325,0-0.618,0.057-0.897,0.164c-0.275,0.101-0.518,0.257-0.732,0.446
				c-0.218,0.202-0.399,0.438-0.533,0.697c-0.144,0.263-0.24,0.554-0.29,0.854H647.644z"/>
			<path fill="#FFFFFF" d="M654.659,885.916v1.379h-4.037v-1.379H654.659z"/>
			<path fill="#FFFFFF" d="M663.254,891.16h-0.038c-0.342,0.518-0.77,0.92-1.278,1.206c-0.511,0.293-1.063,0.438-1.646,0.438
				c-1.278,0-2.284-0.449-3.018-1.346c-0.738-0.9-1.113-2.006-1.113-3.315c0-1.245,0.377-2.3,1.129-3.17
				c0.75-0.893,1.724-1.343,2.926-1.343c1.24,0,2.24,0.566,3.001,1.693h0.038v-8.801h1.654v15.982h-1.654V891.16z M660.548,891.324
				c0.868,0,1.557-0.295,2.041-0.902c0.503-0.607,0.761-1.355,0.761-2.227c0-0.854-0.258-1.59-0.761-2.192
				c-0.484-0.598-1.173-0.895-2.041-0.895c-0.824,0-1.487,0.298-1.987,0.917c-0.492,0.603-0.738,1.321-0.738,2.17
				c0,0.871,0.246,1.615,0.738,2.209C659.061,891.019,659.724,891.324,660.548,891.324z"/>
			<path fill="#FFFFFF" d="M667.618,884.955c0.898-0.882,1.992-1.325,3.284-1.325c1.285,0,2.37,0.443,3.247,1.325
				c0.901,0.879,1.347,1.979,1.347,3.263c0,1.284-0.445,2.37-1.347,3.265c-0.877,0.878-1.962,1.321-3.247,1.321
				c-1.292,0-2.386-0.443-3.284-1.321c-0.884-0.895-1.327-1.98-1.327-3.265C666.291,886.934,666.734,885.833,667.618,884.955z
				 M667.948,888.217c0,0.793,0.297,1.5,0.873,2.108c0.562,0.601,1.261,0.891,2.081,0.891c0.803,0,1.502-0.29,2.074-0.891
				c0.579-0.608,0.864-1.315,0.864-2.108c0-0.812-0.285-1.523-0.864-2.119c-0.572-0.591-1.271-0.884-2.074-0.884
				c-0.82,0-1.52,0.293-2.081,0.884C668.245,886.694,667.948,887.406,667.948,888.217z"/>
			<path fill="#FFFFFF" d="M679.959,889.379l2.532-5.969l2.526,5.969l2.509-5.494h1.872l-4.381,8.918l-2.526-5.763l-2.532,5.763
				l-4.385-8.918h1.877L679.959,889.379z"/>
			<path fill="#FFFFFF" d="M691.89,885.044h0.035c0.243-0.45,0.599-0.805,1.065-1.045c0.469-0.247,0.978-0.37,1.526-0.37
				c0.567,0,1.052,0.089,1.44,0.256c0.392,0.173,0.706,0.42,0.949,0.739c0.238,0.319,0.408,0.712,0.507,1.166
				c0.107,0.465,0.159,0.986,0.159,1.578v5.136h-1.655v-4.932c0-0.853-0.113-1.467-0.366-1.862
				c-0.247-0.406-0.752-0.603-1.534-0.603c-0.276,0-0.516,0.023-0.715,0.077c-0.191,0.057-0.366,0.138-0.516,0.237
				c-0.146,0.107-0.27,0.233-0.366,0.359c-0.103,0.134-0.192,0.284-0.273,0.446c-0.036,0.082-0.073,0.192-0.104,0.329
				c-0.033,0.13-0.063,0.272-0.083,0.418c-0.026,0.139-0.038,0.276-0.06,0.419c-0.004,0.146-0.011,0.253-0.011,0.341v0.813v3.956
				h-1.658v-8.619h1.658V885.044z"/>
			<path fill="#FFFFFF" d="M701.59,892.504h-1.658v-15.982h1.658V892.504z"/>
			<path fill="#FFFFFF" d="M704.5,884.955c0.888-0.882,1.987-1.325,3.28-1.325c1.287,0,2.368,0.443,3.261,1.325
				c0.893,0.879,1.335,1.979,1.335,3.263c0,1.284-0.442,2.37-1.335,3.265c-0.893,0.878-1.974,1.321-3.261,1.321
				c-1.293,0-2.393-0.443-3.28-1.321c-0.89-0.895-1.328-1.98-1.328-3.265C703.171,886.934,703.61,885.833,704.5,884.955z
				 M704.833,888.217c0,0.793,0.288,1.5,0.862,2.108c0.565,0.601,1.261,0.891,2.085,0.891c0.805,0,1.5-0.29,2.083-0.891
				c0.57-0.608,0.859-1.315,0.859-2.108c0-0.812-0.289-1.523-0.859-2.119c-0.583-0.591-1.278-0.884-2.083-0.884
				c-0.824,0-1.52,0.293-2.085,0.884C705.121,886.694,704.833,887.406,704.833,888.217z"/>
			<path fill="#FFFFFF" d="M721.975,892.504h-1.66v-1.345h-0.034c-0.737,1.09-1.716,1.644-2.932,1.644
				c-1.264,0-2.271-0.449-3.02-1.346c-0.735-0.9-1.104-2.006-1.104-3.315c0-1.245,0.371-2.3,1.123-3.17
				c0.748-0.893,1.732-1.343,2.942-1.343c1.232,0,2.228,0.566,2.989,1.693h0.034v-1.438h1.66V892.504z M717.608,891.324
				c0.879,0,1.55-0.295,2.045-0.902c0.502-0.607,0.753-1.355,0.753-2.227c0-0.854-0.251-1.59-0.753-2.192
				c-0.495-0.598-1.166-0.895-2.045-0.895c-0.82,0-1.485,0.298-1.984,0.917c-0.492,0.603-0.744,1.321-0.744,2.17
				c0,0.871,0.252,1.615,0.744,2.209C716.123,891.019,716.788,891.324,717.608,891.324z"/>
			<path fill="#FFFFFF" d="M730.55,891.16h-0.032c-0.347,0.518-0.779,0.92-1.279,1.206c-0.511,0.293-1.061,0.438-1.648,0.438
				c-1.28,0-2.289-0.449-3.025-1.346c-0.734-0.9-1.104-2.006-1.104-3.315c0-1.245,0.38-2.3,1.127-3.17
				c0.746-0.893,1.722-1.343,2.93-1.343c1.237,0,2.23,0.566,3,1.693h0.032v-8.801h1.66v15.982h-1.66V891.16z M727.845,891.324
				c0.87,0,1.548-0.295,2.039-0.902c0.504-0.607,0.757-1.355,0.757-2.227c0-0.854-0.253-1.59-0.757-2.192
				c-0.491-0.598-1.169-0.895-2.039-0.895c-0.823,0-1.487,0.298-1.987,0.917c-0.49,0.603-0.738,1.321-0.738,2.17
				c0,0.871,0.248,1.615,0.738,2.209C726.358,891.019,727.022,891.324,727.845,891.324z"/>
			<path fill="#FFFFFF" d="M736.959,891.73c0,0.296-0.103,0.544-0.305,0.754c-0.217,0.209-0.471,0.319-0.766,0.319
				c-0.296,0-0.546-0.11-0.747-0.319c-0.213-0.21-0.318-0.458-0.318-0.754c0-0.28,0.105-0.531,0.318-0.744
				c0.201-0.214,0.451-0.318,0.747-0.318c0.295,0,0.549,0.104,0.766,0.318C736.857,891.199,736.959,891.45,736.959,891.73z"/>
			<path fill="#FFFFFF" d="M746.017,886.334c-0.686-0.772-1.511-1.159-2.462-1.159c-0.801,0-1.488,0.304-2.048,0.902
				c-0.557,0.609-0.82,1.326-0.82,2.117c0,0.899,0.264,1.629,0.82,2.191c0.579,0.58,1.298,0.867,2.15,0.867
				c0.884,0,1.674-0.392,2.359-1.142v2.116c-0.712,0.378-1.502,0.575-2.374,0.575c-1.276,0-2.372-0.443-3.282-1.313
				c-0.893-0.854-1.336-1.927-1.336-3.217c0-1.325,0.443-2.439,1.336-3.318c0.901-0.882,2.025-1.325,3.374-1.325
				c0.889,0,1.646,0.192,2.282,0.566V886.334z"/>
			<path fill="#FFFFFF" d="M748.357,884.955c0.897-0.882,1.991-1.325,3.276-1.325c1.287,0,2.381,0.443,3.256,1.325
				c0.903,0.879,1.346,1.979,1.346,3.263c0,1.284-0.442,2.37-1.346,3.265c-0.875,0.878-1.969,1.321-3.256,1.321
				c-1.285,0-2.379-0.443-3.276-1.321c-0.884-0.895-1.328-1.98-1.328-3.265C747.029,886.934,747.473,885.833,748.357,884.955z
				 M748.688,888.217c0,0.793,0.292,1.5,0.866,2.108c0.557,0.601,1.261,0.891,2.079,0.891c0.809,0,1.508-0.29,2.08-0.891
				c0.579-0.608,0.866-1.315,0.866-2.108c0-0.812-0.287-1.523-0.866-2.119c-0.572-0.591-1.271-0.884-2.08-0.884
				c-0.818,0-1.522,0.293-2.079,0.884C748.98,886.694,748.688,887.406,748.688,888.217z"/>
			<path fill="#FFFFFF" d="M759.349,884.972h0.037c0.245-0.394,0.563-0.712,0.984-0.964c0.412-0.256,0.844-0.379,1.294-0.379
				c1.074,0,1.898,0.509,2.492,1.531c0.268-0.467,0.643-0.842,1.116-1.122c0.466-0.274,0.985-0.409,1.53-0.409
				c1.908,0,2.855,1.24,2.855,3.717v5.158h-1.653v-4.881c0-0.218-0.007-0.438-0.033-0.648c-0.013-0.223-0.053-0.43-0.097-0.626
				c-0.053-0.209-0.122-0.396-0.223-0.567c-0.1-0.164-0.237-0.325-0.402-0.459c-0.223-0.147-0.508-0.215-0.848-0.215
				c-0.349,0-0.637,0.067-0.882,0.215c-0.239,0.134-0.416,0.305-0.548,0.5c-0.132,0.205-0.234,0.465-0.301,0.77
				c-0.072,0.305-0.122,0.585-0.141,0.831c-0.021,0.241-0.028,0.525-0.028,0.85v4.231h-1.661v-4.566c0-0.295,0-0.534-0.012-0.733
				c-0.018-0.204-0.053-0.445-0.114-0.739c-0.059-0.318-0.136-0.55-0.236-0.703c-0.101-0.17-0.257-0.318-0.456-0.458
				c-0.219-0.131-0.461-0.196-0.757-0.196c-0.849,0-1.396,0.362-1.645,1.097c-0.109,0.353-0.18,0.668-0.217,0.98
				c-0.04,0.301-0.057,0.662-0.057,1.088v4.231h-1.658v-8.619h1.658V884.972z"/>
		</g>
		<g>
			<g>
				<path fill="#FFFFFF" d="M472.783,887.419c7.82,0,15.635,0,23.454,0c0.709,0,0.709-1.094,0-1.094c-7.818,0-15.633,0-23.454,0
					C472.076,886.326,472.076,887.419,472.783,887.419L472.783,887.419z"/>
			</g>
			<g>
				<path fill="#FFFFFF" d="M784.83,887.419c7.818,0,15.636,0,23.448,0c0.717,0,0.717-1.094,0-1.094c-7.813,0-15.63,0-23.448,0
					C784.12,886.326,784.12,887.419,784.83,887.419L784.83,887.419z"/>
			</g>
		</g>
	</g>
</g>
<g>
	<defs>
		<rect id="SVGID_1_" x="0" width="1281.071" height="851.962"/>
	</defs>
	<clipPath id="SVGID_2_">
		<use xlink:href="#SVGID_1_"  overflow="visible"/>
	</clipPath>
	<linearGradient id="SVGID_3_" gradientUnits="userSpaceOnUse" x1="683.4937" y1="-53.5352" x2="572.4845" y2="1185.5831">
		<stop  offset="0.0063" style="stop-color:#BF45ED"/>
		<stop  offset="0.118" style="stop-color:#8A30D2"/>
		<stop  offset="0.2278" style="stop-color:#5D1DBB"/>
		<stop  offset="0.2829" style="stop-color:#4B16B2"/>
		<stop  offset="0.8019" style="stop-color:#1B024C"/>
		<stop  offset="0.8345" style="stop-color:#1E0352"/>
		<stop  offset="0.88" style="stop-color:#270765"/>
		<stop  offset="0.9332" style="stop-color:#350D82"/>
		<stop  offset="0.9918" style="stop-color:#4815AC"/>
		<stop  offset="1" style="stop-color:#4B16B2"/>
	</linearGradient>
	
		<rect x="0" clip-path="url(#SVGID_2_)" fill-rule="evenodd" clip-rule="evenodd" fill="url(#SVGID_3_)" width="1281.071" height="851.962"/>
	<rect x="0" clip-path="url(#SVGID_2_)" fill-rule="evenodd" clip-rule="evenodd" fill="none" width="1281.071" height="851.962"/>
	
		<path id="XMLID_141_" opacity="0.5" clip-path="url(#SVGID_2_)" fill="none" stroke="#FFFFFF" stroke-width="0.4903" stroke-miterlimit="10" d="
		M1374.583,674.744C1260.784,803.267,1007.245,53.762,712.12,170.347C490.929,257.724,480.85,548.32,243.222,529.335
		C5.595,510.355-25.388,188.802-181.95,209.262"/>
	<g id="XMLID_115_" opacity="0.2" clip-path="url(#SVGID_2_)">
		<path id="XMLID_16_" fill="none" stroke="#FFFFFF" stroke-width="0.5074" stroke-miterlimit="10" d="M1596.37,802.835
			c-368.254,96.072-499.154-108.482-500.896-317.17c-1.131-134.969-80.984-12.395-248.725,110.813
			c-167.736,123.211-499.629,21.711-604.365-92.342C136.655,389.007,51.905,378.751-163.013,380.228"/>
		<path fill="none" stroke="#FFFFFF" stroke-width="0.5074" stroke-miterlimit="10" d="M1596.538,791.13
			c-237.26,61.896-379.676,1.313-452.604-113.938c-34.283-54.18-49.375-120.35-52.066-186.49
			c-5.691-131.205-84.967-16.025-250.045,100.104c-77.291,54.371-189.25,62.934-298.493,48.441
			c-125.765-17.088-245.781-73.217-303.194-133.492C134.211,394.55,48.938,382.476-163.956,387.357"/>
		<path fill="none" stroke="#FFFFFF" stroke-width="0.5074" stroke-miterlimit="10" d="M1596.708,779.425
			c-226.477,59.084-370.652,9.768-451.068-103.434c-36.531-51.426-52.389-116.105-57.375-180.25
			c-9.908-127.471-89.008-19.676-251.367,89.393c-76.801,51.594-187.605,60.248-296.67,49.301
			C415.1,621.876,296.588,566.771,237.888,507.375C131.835,400.062,45.973,386.201-164.899,394.49"/>
		<path fill="none" stroke="#FFFFFF" stroke-width="0.5074" stroke-miterlimit="10" d="M1596.877,767.72
			c-215.691,56.271-361.322,18.332-449.533-92.932c-38.598-48.686-55.498-111.859-62.686-174.01
			c-14.311-123.738-93.113-23.352-252.688,78.684c-76.342,48.816-185.928,57.375-294.847,50.16
			c-124.45-8.244-241.469-62.117-301.483-120.629C129.527,405.537,43.007,389.927-165.843,401.621"/>
		<path fill="none" stroke="#FFFFFF" stroke-width="0.5074" stroke-miterlimit="10" d="M1597.045,756.015
			c-204.906,53.457-351.684,26.943-447.996-82.43c-40.494-45.986-58.611-107.623-67.994-167.768
			c-18.725-120.021-97.289-27.061-254.01,67.973c-75.916,46.035-184.238,54.488-293.025,51.018
			c-123.759-3.947-239.27-56.578-300.627-114.195C127.283,410.972,40.041,393.652-166.787,408.75"/>
		<path fill="none" stroke="#FFFFFF" stroke-width="0.5074" stroke-miterlimit="10" d="M1597.215,744.31
			c-194.123,50.645-341.744,35.545-446.461-71.928c-42.23-43.342-61.732-103.391-73.305-161.527
			c-23.15-116.314-101.533-30.805-255.33,57.266c-75.52,43.246-182.539,51.584-291.203,51.875
			c-123.059,0.33-237.042-51.053-299.772-107.764c-106.041-95.865-194.07-114.855-398.874-96.352"/>
		<path fill="none" stroke="#FFFFFF" stroke-width="0.5074" stroke-miterlimit="10" d="M1597.383,732.607
			c-183.338,47.828-331.512,44.072-444.924-61.428c-43.824-40.764-64.861-99.162-78.613-155.285
			c-27.596-112.619-105.855-34.6-256.652,46.555c-75.16,40.447-180.832,48.664-289.38,52.734
			c-122.35,4.586-234.784-45.541-298.917-101.332c-105.909-92.135-194.788-112.75-397.57-90.84"/>
		<path fill="none" stroke="#FFFFFF" stroke-width="0.5074" stroke-miterlimit="10" d="M1597.553,720.902
			c-172.553,45.016-321.012,52.475-443.389-50.924c-45.293-38.268-68-94.939-83.924-149.047
			c-32.057-108.93-110.254-38.447-257.973,35.846c-74.834,37.637-179.119,45.729-287.557,53.594
			c-121.635,8.822-232.498-40.049-298.062-94.9c-105.72-88.449-195.507-110.643-396.266-85.328"/>
		<path fill="none" stroke="#FFFFFF" stroke-width="0.5074" stroke-miterlimit="10" d="M1597.721,709.197
			c-161.768,42.203-310.266,60.705-441.854-40.422c-46.654-35.855-71.148-90.719-89.23-142.805
			c-36.539-105.25-114.732-42.363-259.295,25.135c-74.547,34.807-177.402,42.771-285.735,54.451
			c-120.915,13.037-230.183-34.574-297.206-88.467C118.928,432.279,28.177,408.552-170.56,437.273"/>
		<path fill="none" stroke="#FFFFFF" stroke-width="0.5074" stroke-miterlimit="10" d="M1597.891,697.492
			c-150.984,39.389-299.303,68.721-440.318-29.92c-47.934-33.531-74.311-86.5-94.541-136.564
			c-41.043-101.572-119.287-46.35-260.613,14.426c-74.299,31.953-175.684,39.797-283.915,55.311
			c-120.192,17.229-227.838-29.127-296.351-82.035C116.979,437.486,25.21,412.277-171.503,444.404"/>
		<path fill="none" stroke="#FFFFFF" stroke-width="0.5074" stroke-miterlimit="10" d="M1598.059,685.787
			c-140.199,36.576-288.15,76.49-438.781-19.418c-49.146-31.291-77.484-82.281-99.85-130.322
			c-45.574-97.896-123.922-50.426-261.936,3.717c-74.088,29.064-173.965,36.801-282.092,56.168
			c-119.471,21.398-225.465-23.707-295.495-75.604c-104.825-77.684-197.662-104.326-392.352-68.793"/>
		<path fill="none" stroke="#FFFFFF" stroke-width="0.5074" stroke-miterlimit="10" d="M1598.229,674.082
			c-129.414,33.764-276.844,83.984-437.246-8.916c-50.311-29.137-80.672-78.061-105.16-124.082
			c-50.131-94.213-128.631-54.598-263.256-6.992c-73.916,26.137-172.249,33.789-280.27,57.027
			c-118.75,25.547-223.064-18.318-294.639-69.172c-104.43-74.199-198.38-102.221-391.048-63.281"/>
		<path fill="none" stroke="#FFFFFF" stroke-width="0.5074" stroke-miterlimit="10" d="M1598.399,662.376
			c-118.631,30.949-265.414,91.189-435.711,1.588c-51.443-27.066-83.873-73.836-110.469-117.842
			c-54.713-90.525-133.412-58.881-264.578-17.703c-73.777,23.16-170.536,30.756-278.447,57.885
			c-118.035,29.674-220.635-12.961-293.784-62.738c-103.992-70.768-199.098-100.113-389.743-57.77"/>
		<path fill="none" stroke="#FFFFFF" stroke-width="0.5074" stroke-miterlimit="10" d="M1598.567,650.673
			c-107.846,28.135-253.891,98.092-434.176,12.088c-52.555-25.072-87.082-69.605-115.777-111.602
			c-59.32-86.822-138.252-63.283-265.898-28.412c-73.674,20.127-168.829,27.705-276.625,58.744
			c-117.327,33.783-218.18-7.645-292.928-56.307c-103.517-67.393-199.816-98.008-388.439-52.258"/>
		<path fill="none" stroke="#FFFFFF" stroke-width="0.5074" stroke-miterlimit="10" d="M1598.737,638.968
			c-97.061,25.32-242.307,104.689-432.641,22.59c-53.662-23.148-90.307-65.365-121.086-105.361
			c-63.953-83.1-143.146-67.816-267.221-39.121c-73.598,17.023-167.129,24.637-274.802,59.604
			c-116.626,37.873-215.7-2.371-292.073-49.875c-103.008-64.072-200.534-95.902-387.135-46.746"/>
		<path fill="none" stroke="#FFFFFF" stroke-width="0.5074" stroke-miterlimit="10" d="M1598.905,627.263
			c-86.275,22.508-230.686,110.986-431.104,33.092c-54.775-21.289-93.539-61.113-126.396-99.119
			c-68.604-79.357-148.078-72.494-268.541-49.832c-73.543,13.836-165.44,21.553-272.98,60.461
			c-115.936,41.945-213.195,2.859-291.217-43.441c-102.47-60.809-201.252-93.797-385.831-41.234"/>
		<path fill="none" stroke="#FFFFFF" stroke-width="0.5074" stroke-miterlimit="10" d="M1599.075,615.558
			c-75.492,19.695-219.059,116.99-429.568,43.594c-55.896-19.488-96.781-56.85-131.705-92.877
			c-73.275-75.59-153.029-77.32-269.863-60.541c-73.502,10.555-163.76,18.451-271.158,61.318
			c-115.256,46.002-210.667,8.037-290.361-37.01C104.512,472.439,4.448,438.351-178.106,494.32"/>
		<path fill="none" stroke="#FFFFFF" stroke-width="0.5074" stroke-miterlimit="10" d="M1599.243,603.853
			c-64.707,16.881-207.445,122.715-428.031,54.098c-57.041-17.744-100.029-52.576-137.016-86.639
			c-77.953-71.795-157.98-82.297-271.184-71.25c-73.463,7.168-162.092,15.34-269.335,62.178
			c-114.589,50.045-208.119,13.16-289.506-30.578C102.847,477.207,1.482,442.078-179.05,501.451"/>
		<path fill="none" stroke="#FFFFFF" stroke-width="0.5074" stroke-miterlimit="10" d="M1599.413,592.148
			c-53.924,14.068-195.867,128.17-426.496,64.6c-58.209-16.045-103.279-48.285-142.324-80.398
			c-82.645-67.969-162.908-87.432-272.506-81.959c-73.412,3.664-160.436,12.215-267.512,63.035
			c-113.936,54.078-205.551,18.229-288.651-24.146c-100.727-51.363-203.407-87.477-381.917-24.697"/>
		<path fill="none" stroke="#FFFFFF" stroke-width="0.5074" stroke-miterlimit="10" d="M1599.583,580.443
			c-43.139,11.254-184.34,133.377-424.961,75.102c-59.404-14.387-106.529-43.982-147.635-74.156
			c-87.336-64.113-167.785-92.721-273.824-92.67c-73.334,0.033-158.796,9.078-265.691,63.895
			c-113.296,58.098-202.965,23.234-287.795-17.715c-100.121-48.33-204.125-85.371-380.612-19.186"/>
		<path fill="none" stroke="#FFFFFF" stroke-width="0.5074" stroke-miterlimit="10" d="M1599.75,568.738
			c-32.354,8.441-172.877,138.357-423.426,85.604c-60.629-12.766-109.777-39.664-152.941-67.916
			c-92.025-60.229-172.58-98.152-275.146-103.379c-73.205-3.73-157.167,5.934-263.869,64.754
			c-112.669,62.109-200.365,28.176-286.94-11.283C97.918,491.166-7.416,453.251-181.88,522.843"/>
		<path fill="none" stroke="#FFFFFF" stroke-width="0.5074" stroke-miterlimit="10" d="M1599.92,557.035
			c-21.57,5.627-161.49,143.125-421.891,96.104c-61.889-11.176-113.023-35.336-158.252-61.674
			c-96.709-56.318-177.264-103.721-276.467-114.09c-73.006-7.631-155.553,2.779-262.047,65.611
			c-112.058,66.115-197.753,33.049-286.084-4.85c-98.9-42.432-205.562-81.16-378.004-8.162"/>
		<path fill="none" stroke="#FFFFFF" stroke-width="0.5074" stroke-miterlimit="10" d="M1600.088,545.33
			c-10.785,2.813-150.188,147.709-420.354,106.605c-63.182-9.611-116.311-30.906-163.561-55.434
			c-101.484-52.189-181.809-109.4-277.789-124.797c-72.715-11.666-154.043-0.525-260.224,66.469
			c-111.556,69.965-195.132,37.85-285.229,1.582c-98.296-39.568-206.28-79.053-376.699-2.65"/>
		<path id="XMLID_15_" fill="none" stroke="#FFFFFF" stroke-width="0.5074" stroke-miterlimit="10" d="M1600.258,533.625
			c0,0-138.975,152.129-418.818,117.109c-310.885-38.9-400.629-321.737-706.382-117.373
			C246.256,686.287,142.026,389.384-184.71,544.236"/>
	</g>
	<g id="XMLID_46_" opacity="0.5" clip-path="url(#SVGID_2_)">
		
			<linearGradient id="XMLID_3_" gradientUnits="userSpaceOnUse" x1="1467.8813" y1="136.5933" x2="486.3431" y2="700.6951" gradientTransform="matrix(0.9967 0.0818 0.0818 -0.9967 -31.5789 500.6442)">
			<stop  offset="0" style="stop-color:#792ADE"/>
			<stop  offset="1" style="stop-color:#1B024C"/>
		</linearGradient>
		<path id="XMLID_56_" fill="url(#XMLID_3_)" d="M725.854,177.881c254.391-63.869,492.17,300.702,778.1,84.933l-26.629,324.592
			C906.325,622.173,929.239,167.807,725.854,177.881z"/>
		
			<linearGradient id="XMLID_4_" gradientUnits="userSpaceOnUse" x1="-172.9507" y1="-52.8364" x2="455.8512" y2="426.0765" gradientTransform="matrix(0.9967 0.0818 0.0818 -0.9967 -31.5789 500.6442)">
			<stop  offset="0" style="stop-color:#792ADE"/>
			<stop  offset="1" style="stop-color:#1B024C"/>
		</linearGradient>
		<path id="XMLID_55_" fill="url(#XMLID_4_)" d="M-79.202,522.138l23.296-283.958c152.969,91.008,275.997,117.683,379.907,110.556
			C252.74,466.248,159.643,548.939-79.202,522.138z"/>
		
			<linearGradient id="XMLID_5_" gradientUnits="userSpaceOnUse" x1="794.9517" y1="467.4976" x2="295.8112" y2="54.4155" gradientTransform="matrix(0.9967 0.0818 0.0818 -0.9967 -31.5789 500.6442)">
			<stop  offset="0" style="stop-color:#792ADE"/>
			<stop  offset="1" style="stop-color:#1B024C"/>
		</linearGradient>
		<path id="XMLID_54_" fill="url(#XMLID_5_)" d="M324.001,348.736c55.497-91.518,110.111-159.832,249.422-189.308
			c106.989-22.637,261.04,4.041,302.811,23.279C667.264,122.528,664.807,317.077,324.001,348.736z"/>
	</g>
	<g id="XMLID_13_" opacity="0.7" clip-path="url(#SVGID_2_)">
		<defs>
			<filter id="Adobe_OpacityMaskFilter" filterUnits="userSpaceOnUse" x="104.292" y="513.557" width="622.691" height="154.972">
				<feFlood  style="flood-color:white;flood-opacity:1" result="back"/>
				<feBlend  in="SourceGraphic" in2="back" mode="normal"/>
			</filter>
		</defs>
		<mask maskUnits="userSpaceOnUse" x="104.292" y="513.557" width="622.691" height="154.972" id="XMLID_7_">
			<g filter="url(#Adobe_OpacityMaskFilter)">
				<defs>
					
						<filter id="Adobe_OpacityMaskFilter_1_" filterUnits="userSpaceOnUse" x="104.292" y="513.557" width="622.691" height="154.972">
						<feFlood  style="flood-color:white;flood-opacity:1" result="back"/>
						<feBlend  in="SourceGraphic" in2="back" mode="normal"/>
					</filter>
				</defs>
				<mask maskUnits="userSpaceOnUse" x="104.292" y="513.557" width="622.691" height="154.972" id="XMLID_7_">
					<g filter="url(#Adobe_OpacityMaskFilter_1_)">
					</g>
				</mask>
				
					<linearGradient id="XMLID_17_" gradientUnits="userSpaceOnUse" x1="455.355" y1="447.769" x2="438.9299" y2="591.7285" gradientTransform="matrix(0.9967 0.0818 -0.0818 0.9967 29.7596 -44.7394)">
					<stop  offset="0" style="stop-color:#FFFFFF"/>
					<stop  offset="1" style="stop-color:#000000"/>
				</linearGradient>
				<path id="XMLID_216_" mask="url(#XMLID_7_)" fill="url(#XMLID_17_)" d="M104.292,543.066
					C534.168,434.738,607.58,660.205,726.983,651.142C412.231,723.857,175.14,545.103,104.292,543.066z"/>
			</g>
		</mask>
		
			<linearGradient id="XMLID_18_" gradientUnits="userSpaceOnUse" x1="455.355" y1="447.769" x2="438.9299" y2="591.7285" gradientTransform="matrix(0.9967 0.0818 -0.0818 0.9967 29.7596 -44.7394)">
			<stop  offset="0" style="stop-color:#29B9DC"/>
			<stop  offset="1" style="stop-color:#29B9DC"/>
		</linearGradient>
		<path id="XMLID_1_" opacity="0.4" fill="url(#XMLID_18_)" d="M104.292,543.066C534.168,434.738,607.58,660.205,726.983,651.142
			C412.231,723.857,175.14,545.103,104.292,543.066z"/>
		<g id="XMLID_8_">
			<defs>
				<filter id="Adobe_OpacityMaskFilter_2_" filterUnits="userSpaceOnUse" x="0" y="564.893" width="369.292" height="124.463">
					<feFlood  style="flood-color:white;flood-opacity:1" result="back"/>
					<feBlend  in="SourceGraphic" in2="back" mode="normal"/>
				</filter>
			</defs>
			<mask maskUnits="userSpaceOnUse" x="0" y="564.893" width="369.292" height="124.463" id="SVGID_4_">
				<g filter="url(#Adobe_OpacityMaskFilter_2_)">
					<defs>
						<filter id="Adobe_OpacityMaskFilter_3_" filterUnits="userSpaceOnUse" x="0" y="564.893" width="369.292" height="124.463">
							<feFlood  style="flood-color:white;flood-opacity:1" result="back"/>
							<feBlend  in="SourceGraphic" in2="back" mode="normal"/>
						</filter>
					</defs>
					<mask maskUnits="userSpaceOnUse" x="0" y="564.893" width="369.292" height="124.463" id="SVGID_4_">
						<g filter="url(#Adobe_OpacityMaskFilter_3_)">
						</g>
					</mask>
					
						<linearGradient id="SVGID_5_" gradientUnits="userSpaceOnUse" x1="232.1021" y1="770.8052" x2="189.3822" y2="598.4069" gradientTransform="matrix(0.9967 0.0818 -0.0818 0.9967 29.7596 -44.7394)">
						<stop  offset="0" style="stop-color:#FFFFFF"/>
						<stop  offset="1" style="stop-color:#000000"/>
					</linearGradient>
					<path mask="url(#SVGID_4_)" fill="url(#SVGID_5_)" d="M0,566.773v122.584c104.231-36.711,203.967-118.322,369.292-58.682
						C254.557,563.697,92.669,561.316,0,566.773z"/>
				</g>
			</mask>
			
				<linearGradient id="SVGID_6_" gradientUnits="userSpaceOnUse" x1="232.1021" y1="770.8052" x2="189.3822" y2="598.4069" gradientTransform="matrix(0.9967 0.0818 -0.0818 0.9967 29.7596 -44.7394)">
				<stop  offset="0" style="stop-color:#29B9DC"/>
				<stop  offset="1" style="stop-color:#29B9DC"/>
			</linearGradient>
			<path opacity="0.6" fill="url(#SVGID_6_)" d="M0,566.773v122.584c104.231-36.711,203.967-118.322,369.292-58.682
				C254.557,563.697,92.669,561.316,0,566.773z"/>
			<defs>
				
					<filter id="Adobe_OpacityMaskFilter_4_" filterUnits="userSpaceOnUse" x="369.292" y="544.821" width="745.926" height="170.313">
					<feFlood  style="flood-color:white;flood-opacity:1" result="back"/>
					<feBlend  in="SourceGraphic" in2="back" mode="normal"/>
				</filter>
			</defs>
			<mask maskUnits="userSpaceOnUse" x="369.292" y="544.821" width="745.926" height="170.313" id="XMLID_19_">
				<g filter="url(#Adobe_OpacityMaskFilter_4_)">
					<defs>
						
							<filter id="Adobe_OpacityMaskFilter_5_" filterUnits="userSpaceOnUse" x="369.292" y="544.821" width="745.926" height="170.313">
							<feFlood  style="flood-color:white;flood-opacity:1" result="back"/>
							<feBlend  in="SourceGraphic" in2="back" mode="normal"/>
						</filter>
					</defs>
					<mask maskUnits="userSpaceOnUse" x="369.292" y="544.821" width="745.926" height="170.313" id="XMLID_19_">
						<g filter="url(#Adobe_OpacityMaskFilter_5_)">
						</g>
					</mask>
					
						<linearGradient id="XMLID_20_" gradientUnits="userSpaceOnUse" x1="933.7036" y1="799.2466" x2="730.0061" y2="536.9789" gradientTransform="matrix(0.9967 0.0818 -0.0818 0.9967 29.7596 -44.7394)">
						<stop  offset="0" style="stop-color:#FFFFFF"/>
						<stop  offset="0.7875" style="stop-color:#000000"/>
					</linearGradient>
					<path id="XMLID_214_" mask="url(#XMLID_19_)" fill="url(#XMLID_20_)" d="M369.292,630.675
						c71.994,45.439,226.401,99.203,382.224,80.723c194.619-23.08,174.109-161.609,363.703-153.424
						C614.545,489.095,565.933,717.41,369.292,630.675z"/>
				</g>
			</mask>
			
				<linearGradient id="XMLID_21_" gradientUnits="userSpaceOnUse" x1="933.7036" y1="799.2466" x2="730.0061" y2="536.9789" gradientTransform="matrix(0.9967 0.0818 -0.0818 0.9967 29.7596 -44.7394)">
				<stop  offset="0" style="stop-color:#29B9DC"/>
				<stop  offset="0.7875" style="stop-color:#29B9DC"/>
			</linearGradient>
			<path id="XMLID_6_" opacity="0.6" fill="url(#XMLID_21_)" d="M369.292,630.675c71.994,45.439,226.401,99.203,382.224,80.723
				c194.619-23.08,174.109-161.609,363.703-153.424C614.545,489.095,565.933,717.41,369.292,630.675z"/>
			<defs>
				
					<filter id="Adobe_OpacityMaskFilter_6_" filterUnits="userSpaceOnUse" x="1115.218" y="557.045" width="165.852" height="136.248">
					<feFlood  style="flood-color:white;flood-opacity:1" result="back"/>
					<feBlend  in="SourceGraphic" in2="back" mode="normal"/>
				</filter>
			</defs>
			<mask maskUnits="userSpaceOnUse" x="1115.218" y="557.045" width="165.852" height="136.248" id="SVGID_7_">
				<g filter="url(#Adobe_OpacityMaskFilter_6_)">
					<defs>
						
							<filter id="Adobe_OpacityMaskFilter_7_" filterUnits="userSpaceOnUse" x="1115.218" y="557.045" width="165.852" height="136.248">
							<feFlood  style="flood-color:white;flood-opacity:1" result="back"/>
							<feBlend  in="SourceGraphic" in2="back" mode="normal"/>
						</filter>
					</defs>
					<mask maskUnits="userSpaceOnUse" x="1115.218" y="557.045" width="165.852" height="136.248" id="SVGID_7_">
						<g filter="url(#Adobe_OpacityMaskFilter_7_)">
						</g>
					</mask>
					
						<linearGradient id="SVGID_8_" gradientUnits="userSpaceOnUse" x1="1401.9966" y1="441.2554" x2="1186.3716" y2="596.1412" gradientTransform="matrix(0.9967 0.0818 -0.0818 0.9967 29.7596 -44.7394)">
						<stop  offset="0" style="stop-color:#FFFFFF"/>
						<stop  offset="1" style="stop-color:#000000"/>
					</linearGradient>
					<path mask="url(#SVGID_7_)" fill="url(#SVGID_8_)" d="M1281.071,572.007c-39.865-10.518-93.963-17.588-165.852-14.033
						c0,0,92.57,32.299,165.852,135.32V572.007z"/>
				</g>
			</mask>
			
				<linearGradient id="SVGID_9_" gradientUnits="userSpaceOnUse" x1="1401.9966" y1="441.2554" x2="1186.3716" y2="596.1412" gradientTransform="matrix(0.9967 0.0818 -0.0818 0.9967 29.7596 -44.7394)">
				<stop  offset="0" style="stop-color:#29B9DC"/>
				<stop  offset="1" style="stop-color:#29B9DC"/>
			</linearGradient>
			<path opacity="0.6" fill="url(#SVGID_9_)" d="M1281.071,572.007c-39.865-10.518-93.963-17.588-165.852-14.033
				c0,0,92.57,32.299,165.852,135.32V572.007z"/>
		</g>
	</g>
	<defs>
		<filter id="Adobe_OpacityMaskFilter_8_" filterUnits="userSpaceOnUse" x="1590.577" y="305.42" width="5.914" height="5.809">
			<feFlood  style="flood-color:white;flood-opacity:1" result="back"/>
			<feBlend  in="SourceGraphic" in2="back" mode="normal"/>
		</filter>
	</defs>
	<mask maskUnits="userSpaceOnUse" x="1590.577" y="305.42" width="5.914" height="5.809" id="XMLID_22_">
		<g filter="url(#Adobe_OpacityMaskFilter_8_)">
			<defs>
				<filter id="Adobe_OpacityMaskFilter_9_" filterUnits="userSpaceOnUse" x="1590.577" y="305.42" width="5.914" height="5.809">
					<feFlood  style="flood-color:white;flood-opacity:1" result="back"/>
					<feBlend  in="SourceGraphic" in2="back" mode="normal"/>
				</filter>
			</defs>
			<mask maskUnits="userSpaceOnUse" x="1590.577" y="305.42" width="5.914" height="5.809" id="XMLID_22_">
				<g filter="url(#Adobe_OpacityMaskFilter_9_)">
				</g>
			</mask>
			
				<radialGradient id="XMLID_23_" cx="1587.145" cy="234.9663" r="2.9573" gradientTransform="matrix(0.9967 0.0818 -0.0803 0.9787 30.4936 -51.4663)" gradientUnits="userSpaceOnUse">
				<stop  offset="0" style="stop-color:#FFFFFF"/>
				<stop  offset="1" style="stop-color:#000000"/>
			</radialGradient>
			<path id="XMLID_210_" clip-path="url(#SVGID_2_)" mask="url(#XMLID_22_)" fill="url(#XMLID_23_)" d="M1596.481,308.566
				c-0.131,1.599-1.557,2.786-3.184,2.652c-1.629-0.134-2.842-1.537-2.711-3.136c0.133-1.598,1.557-2.785,3.186-2.652
				C1595.399,305.564,1596.612,306.968,1596.481,308.566z"/>
		</g>
	</mask>
	
		<radialGradient id="XMLID_24_" cx="1587.145" cy="234.9663" r="2.9573" gradientTransform="matrix(0.9967 0.0818 -0.0803 0.9787 30.4936 -51.4663)" gradientUnits="userSpaceOnUse">
		<stop  offset="0" style="stop-color:#BF45ED"/>
		<stop  offset="1" style="stop-color:#BF45ED"/>
	</radialGradient>
	<path id="XMLID_151_" clip-path="url(#SVGID_2_)" fill="url(#XMLID_24_)" d="M1596.481,308.566
		c-0.131,1.599-1.557,2.786-3.184,2.652c-1.629-0.134-2.842-1.537-2.711-3.136c0.133-1.598,1.557-2.785,3.186-2.652
		C1595.399,305.564,1596.612,306.968,1596.481,308.566z"/>
	<defs>
		<filter id="Adobe_OpacityMaskFilter_10_" filterUnits="userSpaceOnUse" x="1579.412" y="406.737" width="2.957" height="2.904">
			<feFlood  style="flood-color:white;flood-opacity:1" result="back"/>
			<feBlend  in="SourceGraphic" in2="back" mode="normal"/>
		</filter>
	</defs>
	<mask maskUnits="userSpaceOnUse" x="1579.412" y="406.737" width="2.957" height="2.904" id="XMLID_25_">
		<g filter="url(#Adobe_OpacityMaskFilter_10_)">
			<defs>
				<filter id="Adobe_OpacityMaskFilter_11_" filterUnits="userSpaceOnUse" x="1579.412" y="406.737" width="2.957" height="2.904">
					<feFlood  style="flood-color:white;flood-opacity:1" result="back"/>
					<feBlend  in="SourceGraphic" in2="back" mode="normal"/>
				</filter>
			</defs>
			<mask maskUnits="userSpaceOnUse" x="1579.412" y="406.737" width="2.957" height="2.904" id="XMLID_25_">
				<g filter="url(#Adobe_OpacityMaskFilter_11_)">
				</g>
			</mask>
			
				<radialGradient id="XMLID_26_" cx="1582.7104" cy="337.3745" r="1.4785" gradientTransform="matrix(0.9967 0.0818 -0.0803 0.9787 30.4936 -51.4663)" gradientUnits="userSpaceOnUse">
				<stop  offset="0" style="stop-color:#FFFFFF"/>
				<stop  offset="1" style="stop-color:#000000"/>
			</radialGradient>
			<path id="XMLID_208_" clip-path="url(#SVGID_2_)" mask="url(#XMLID_25_)" fill="url(#XMLID_26_)" d="M1582.364,408.31
				c-0.064,0.799-0.777,1.395-1.592,1.326c-0.814-0.066-1.42-0.768-1.355-1.568c0.066-0.799,0.779-1.393,1.592-1.326
				C1581.823,406.81,1582.43,407.511,1582.364,408.31z"/>
		</g>
	</mask>
	
		<radialGradient id="XMLID_27_" cx="1582.7104" cy="337.3745" r="1.4785" gradientTransform="matrix(0.9967 0.0818 -0.0803 0.9787 30.4936 -51.4663)" gradientUnits="userSpaceOnUse">
		<stop  offset="0" style="stop-color:#BF45ED"/>
		<stop  offset="1" style="stop-color:#BF45ED"/>
	</radialGradient>
	<path id="XMLID_157_" clip-path="url(#SVGID_2_)" fill="url(#XMLID_27_)" d="M1582.364,408.31
		c-0.064,0.799-0.777,1.395-1.592,1.326c-0.814-0.066-1.42-0.768-1.355-1.568c0.066-0.799,0.779-1.393,1.592-1.326
		C1581.823,406.81,1582.43,407.511,1582.364,408.31z"/>
	<g id="XMLID_10_" opacity="0.5" clip-path="url(#SVGID_2_)">
		<path id="XMLID_14_" fill="none" stroke="#FFFFFF" stroke-width="0.5066" stroke-miterlimit="10" d="M-207.216,31.61
			c352.509-87.881,518.201,174.798,508.567,399.114c-6.229,145.076,113.366-1.152,278.227-126.551
			c164.864-125.402,394.612-112.513,487.227,14.402c93.496,128.118,159.721,233.094,362.502,240.469"/>
		<path fill="none" stroke="#FFFFFF" stroke-width="0.5066" stroke-miterlimit="10" d="M-208.009,44.18
			C6.396-9.271,156.413,64.796,238.724,190.208c45.837,69.839,66.474,154.825,65.697,234.476
			c-1.558,141.369,116.312,4.154,278.663-114.334c89.409-65.252,198.124-91.87,294.143-84.525
			c78.518,6.006,147.727,38.243,190.318,92.784c95.418,122.193,164.512,225.605,363.25,230.222"/>
		<path fill="none" stroke="#FFFFFF" stroke-width="0.5066" stroke-miterlimit="10" d="M-208.8,56.75
			C-4.142,5.729,147.055,67.897,235.868,191.214c47.972,66.608,69.669,149.807,71.623,227.43
			c3.114,137.662,119.292,9.469,279.1-102.118c88.527-61.813,196.135-87.829,292.158-83.474
			c77.727,3.525,146.254,33.903,189.537,85.587c97.377,116.28,169.305,218.118,363.996,219.977"/>
		<path fill="none" stroke="#FFFFFF" stroke-width="0.5066" stroke-miterlimit="10" d="M-209.592,69.321
			C-14.68,20.729,137.466,70.93,233.013,192.22c49.943,63.399,72.863,144.789,77.547,220.385
			c7.786,133.953,122.309,14.793,279.536-89.901c87.666-58.374,194.125-83.762,290.173-82.422
			c76.92,1.073,144.799,29.565,188.756,78.39c99.373,110.376,174.096,210.628,364.744,209.73"/>
		<path fill="none" stroke="#FFFFFF" stroke-width="0.5066" stroke-miterlimit="10" d="M-210.385,81.89
			c185.167-46.162,338.028-7.959,440.542,111.336c51.757,60.229,76.246,139.752,83.473,213.338
			c12.79,130.213,125.365,20.133,279.972-77.682c86.824-54.932,192.093-79.666,288.189-81.372
			c76.098-1.351,143.361,25.229,187.975,71.194c101.408,104.481,178.887,203.141,365.49,199.485"/>
		<path fill="none" stroke="#FFFFFF" stroke-width="0.5066" stroke-miterlimit="10" d="M-211.177,94.461
			c175.422-43.733,328.766-17.52,438.479,99.771c53.421,57.11,79.479,134.722,89.398,206.291
			c17.53,126.484,128.463,25.492,280.409-65.464c86.006-51.483,190.043-75.535,286.204-80.319
			c75.262-3.745,141.945,20.891,187.193,63.996c103.486,98.588,183.68,195.653,366.238,189.241"/>
		<path fill="none" stroke="#FFFFFF" stroke-width="0.5066" stroke-miterlimit="10" d="M-211.968,107.031
			C-46.292,65.728,107.306,80,224.446,195.238c54.947,54.055,82.708,129.687,95.324,199.246
			c22.261,122.748,131.606,30.869,280.845-53.248c85.213-48.029,187.981-71.371,284.219-79.268
			c74.418-6.106,140.549,16.549,186.412,56.801c105.613,92.69,188.471,188.165,366.986,178.993"/>
		<path fill="none" stroke="#FFFFFF" stroke-width="0.5066" stroke-miterlimit="10" d="M-212.76,119.601
			c155.93-38.873,309.564-36.456,434.351,76.644c56.348,51.071,85.933,124.651,101.249,192.2
			c26.985,119.008,134.794,36.275,281.281-41.031c84.444-44.565,185.907-67.17,282.235-78.216
			c73.564-8.436,139.176,12.2,185.631,49.603c107.789,86.782,193.264,180.676,367.734,168.749"/>
		<path fill="none" stroke="#FFFFFF" stroke-width="0.5066" stroke-miterlimit="10" d="M-213.552,132.171
			c146.185-36.444,299.646-45.76,432.288,65.08c57.639,48.166,89.151,119.612,107.174,185.153
			c31.697,115.268,138.032,41.717,281.718-28.813c83.703-41.086,183.826-62.931,280.25-77.165
			c72.707-10.733,137.822,7.841,184.85,42.405c110.012,80.856,198.055,173.19,368.48,158.502"/>
		<path fill="none" stroke="#FFFFFF" stroke-width="0.5066" stroke-miterlimit="10" d="M-214.344,144.741
			c136.438-34.015,289.538-54.91,430.224,53.516c58.835,45.344,92.363,114.572,113.1,178.107
			c36.398,111.521,141.317,47.195,282.154-16.598c82.988-37.589,181.742-58.651,278.265-76.112
			c71.848-12.998,136.494,3.471,184.07,35.209c112.283,74.903,202.846,165.7,369.227,148.256"/>
		<path fill="none" stroke="#FFFFFF" stroke-width="0.5066" stroke-miterlimit="10" d="M-215.136,157.311
			c126.693-31.585,279.253-63.874,428.16,41.953c59.953,42.608,95.569,109.532,119.026,171.062
			c41.087,107.773,144.652,52.725,282.591-4.381c82.301-34.073,179.659-54.333,276.28-75.061
			c70.992-15.23,135.184-0.916,183.289,28.012c114.604,68.917,207.637,158.213,369.975,138.012"/>
		<path fill="none" stroke="#FFFFFF" stroke-width="0.5066" stroke-miterlimit="10" d="M-215.928,169.881
			c116.947-29.155,268.813-72.628,426.097,30.388c61.007,39.958,98.767,104.493,124.951,164.015
			c45.764,104.031,148.037,58.311,283.027,7.838c81.643-30.525,177.581-49.972,274.295-74.01
			c70.139-17.432,133.895-5.322,182.508,20.815c116.965,62.888,212.43,150.724,370.723,127.765"/>
		<path fill="none" stroke="#FFFFFF" stroke-width="0.5066" stroke-miterlimit="10" d="M-216.72,182.451
			c107.202-26.726,258.241-81.15,424.033,18.824c62.012,37.394,101.957,99.456,130.876,156.97
			c50.426,100.289,151.467,63.959,283.464,20.055c81.009-26.945,175.513-45.571,272.31-72.958
			c69.293-19.605,132.619-9.751,181.727,13.618c119.367,56.807,217.221,143.237,371.469,117.52"/>
		<path fill="none" stroke="#FFFFFF" stroke-width="0.5066" stroke-miterlimit="10" d="M-217.512,195.021
			c97.457-24.296,247.555-89.421,421.97,7.261c62.982,34.913,105.141,94.421,136.801,149.922
			c55.078,96.555,154.939,69.682,283.9,32.271c80.402-23.322,173.458-41.129,270.326-71.906
			c68.457-21.75,131.357-14.204,180.945,6.421c121.801,50.665,222.014,135.749,372.217,107.274"/>
		<path fill="none" stroke="#FFFFFF" stroke-width="0.5066" stroke-miterlimit="10" d="M-218.305,207.592
			c87.711-21.867,236.781-97.43,419.906-4.304c63.931,32.512,108.318,89.391,142.727,142.877
			c59.717,92.826,158.447,75.486,284.336,44.488C708.483,371,800.088,354.003,897.006,319.8
			c67.633-23.868,130.105-18.686,180.164-0.775c124.26,44.456,226.805,128.26,372.963,97.028"/>
		<path fill="none" stroke="#FFFFFF" stroke-width="0.5066" stroke-miterlimit="10" d="M-219.097,220.161
			c77.965-19.437,225.94-105.167,417.843-15.867c64.869,30.187,111.488,84.366,148.652,135.83
			c64.346,89.107,161.983,81.385,284.773,56.707c79.249-15.928,169.407-32.135,266.358-69.803
			c66.82-25.963,128.857-23.193,179.381-7.973c126.73,38.178,231.596,120.772,373.711,86.782"/>
		<path fill="none" stroke="#FFFFFF" stroke-width="0.5066" stroke-miterlimit="10" d="M-219.888,232.731
			c68.219-17.007,215.055-112.63,415.778-27.431c65.808,27.933,114.654,79.348,154.577,128.784
			c68.966,85.399,165.535,87.381,285.21,68.924c78.692-12.137,167.417-27.582,264.374-68.752
			c66.025-28.035,127.611-27.729,178.6-15.169c129.205,31.828,236.389,113.285,374.459,76.537"/>
		<path fill="none" stroke="#FFFFFF" stroke-width="0.5066" stroke-miterlimit="10" d="M-220.68,245.302
			c58.474-14.578,204.149-119.821,413.715-38.995c66.755,25.746,117.815,74.336,160.503,121.739
			c73.578,81.704,169.089,93.479,285.646,81.139c78.137-8.271,165.451-22.996,262.389-67.699
			c65.248-30.088,126.363-32.292,177.818-22.366c131.672,25.401,241.18,105.795,375.207,66.292"/>
		<path fill="none" stroke="#FFFFFF" stroke-width="0.5066" stroke-miterlimit="10" d="M-221.472,257.872
			c48.728-12.148,193.242-126.74,411.652-50.559c67.72,23.621,120.973,69.333,166.428,114.691
			c78.185,78.022,172.629,99.69,286.082,93.358c77.574-4.33,163.516-18.383,260.402-66.646
			c64.492-32.127,125.107-36.883,177.039-29.564c134.121,18.901,245.973,98.308,375.953,56.044"/>
		<path fill="none" stroke="#FFFFFF" stroke-width="0.5066" stroke-miterlimit="10" d="M-222.264,270.442
			c38.983-9.718,182.353-133.398,409.588-62.123c68.709,21.551,124.13,64.336,172.354,107.646
			c82.79,74.353,176.279,99.941,286.52,105.576c76.889,3.93,161.609-13.74,258.418-65.596
			c63.752-34.15,123.836-41.497,176.256-36.761c136.543,12.334,250.764,90.82,376.701,45.8"/>
		<path fill="none" stroke="#FFFFFF" stroke-width="0.5066" stroke-miterlimit="10" d="M-223.056,283.012
			c29.237-7.289,171.499-139.806,407.524-73.687c69.728,19.533,127.286,59.35,178.279,100.601
			c87.394,70.697,179.589,112.429,286.956,117.791c76.371,3.814,159.736-9.072,256.434-64.543
			c63.033-36.16,122.551-46.131,175.477-43.958c138.928,5.705,255.555,83.333,377.447,35.553"/>
		<path fill="none" stroke="#FFFFFF" stroke-width="0.5066" stroke-miterlimit="10" d="M-223.848,295.582
			c19.491-4.859,160.696-145.977,405.461-85.25c70.779,17.561,130.372,54.466,184.204,93.554
			c91.879,67.219,182.967,118.954,287.392,130.008c75.703,8.016,157.896-4.385,254.449-63.492
			c62.334-38.161,121.262-49.952,174.695-51.154c141.236-3.178,260.346,75.843,378.193,25.308"/>
		<path fill="none" stroke="#FFFFFF" stroke-width="0.5066" stroke-miterlimit="10" d="M-224.64,308.152
			c9.746-2.43,149.957-151.925,403.397-96.814c71.868,15.628,133.567,49.448,190.13,86.508
			c96.551,63.511,186.249,125.562,287.828,142.226c74.973,12.299,156.092,0.322,252.465-62.441
			c61.658-40.155,119.926-55.452,173.914-58.35c143.563-7.711,265.137,68.356,378.941,15.062"/>
		<path id="XMLID_12_" fill="none" stroke="#FFFFFF" stroke-width="0.5066" stroke-miterlimit="10" d="M-225.432,320.722
			c0,0,139.293-157.668,401.334-108.377c291.108,54.758,435.386,379.364,734.8,172.517c224.059-154.792,402,16.289,552.822-60.733"
			/>
	</g>
	<path id="XMLID_100_" clip-path="url(#SVGID_2_)" fill="none" stroke="#FFFFFF" stroke-width="0.4903" stroke-miterlimit="10" d="
		M-126.472,373.105c188.885-170.722,408.363-101.109,548.808,42.951c140.445,144.059,337.501,88.059,435.591,4.855
		c147.979-125.519,384.838-158.196,588.193,120.541"/>
</g>
</g>
</svg>
