<svg id="Layer_1" data-name="Layer 1" xmlns="http://www.w3.org/2000/svg" xmlns:xlink="http://www.w3.org/1999/xlink" viewBox="0 0 1920 1080">
<defs>
<clipPath id="clip-path"><rect width="1920" height="1080" fill="none"/></clipPath>
</defs>

<defs>
    <filter id="blurry-filter" x="-100%" y="-100%" width="400%" height="400%" filterUnits="objectBoundingBox" primitiveUnits="userSpaceOnUse" color-interpolation-filters="sRGB">
    <feGaussianBlur stdDeviation="62 32" x="0%" y="0%" width="100%" height="100%" in="SourceGraphic" edgeMode="none" result="blur"></feGaussianBlur>
    </filter>
</defs>
<g filter="url(#blurry-filter)">

<rect x="2.45" y="-0.86" width="1916.79" height="1080.57" fill="#e26161"/>
<g clip-path="url(#clip-path)">
<path d="M36.37-933.59q21-36.17,41.76-73.92C293.84-803.1,502.57-548.72,718-378.21,825.6-291.85,935-225,1047-179.26c111.94,46.42,226.44,71.77,343.76,90.24C1508.42-69.9,1628.63-58.45,1750.9-31.6c122.25,26.44,246.58,68.28,371.81,138.83,125.21,69.93,251.33,168.56,376.51,294.22,125.15,124.81,249.37,276.66,370.18,433.66q-36.65-51.57-76.1-79.35C2673.8,621.67,2551,494.84,2427.21,391,2303.43,286.64,2178.74,205.26,2055,149c-123.83-56.83-246.77-88.54-367.68-106.65C1566.33,23.66,1447.42,18.59,1331,2c-116.12-14.55-229.38-37.31-340-82-110.65-44.1-218.67-110.17-324.8-197.15C453.69-448.87,248.25-710.63,36.37-933.59Z" fill="#808a4b"/>
<path d="M-5.7-863q21.11-34.42,42.07-70.63c211.88,223,417.32,484.72,629.84,656.41C772.35-190.2,880.37-124.13,991-80c110.61,44.72,223.83,67.49,339.87,82.07C1447.3,18.64,1566.24,23.7,1687.2,42.36c120.93,18.1,243.88,49.81,367.72,106.63,123.81,56.26,248.5,137.64,372.28,242C2551,494.84,2673.8,621.67,2793.3,755.76c-26.29-18.5-53.49-29-81.54-31.84C2593.94,609,2472.83,501.14,2350.8,414c-122.06-87.66-245-154.56-367.15-199.35-122.16-45.3-243.47-68.48-362.82-80.58-119.37-12.61-236.77-14.14-351.69-28-114.63-12.14-226.41-33.82-335.52-78.39q-163.71-66-320.14-200c-104.69-88.9-207.46-199.56-310.11-320C200.74-612.49,98.23-742.43-5.7-863Z" fill="#87981a"/>
<path d="M-48-796Q-26.81-828.52-5.7-863C98.23-742.43,200.74-612.49,303.37-492.34,406-371.89,508.79-261.23,613.48-172.33q156.79,133.68,320.13,200c109.1,44.58,220.84,66.27,335.37,78.45,115,13.87,232.38,15.38,351.78,28,119.36,12.08,240.69,35.26,362.86,80.56,122.14,44.78,245.11,111.68,367.17,199.34,122,87.14,243.15,195,361,309.92-28-2.84-56.94,2-86.61,13.81-115.77-100.81-234.82-194.24-354.81-268.5-120-74.74-241-130.31-361.21-166.22-120.23-36.39-239.68-53.11-357.23-61-117.58-8.35-233.25-7.83-346.49-20.57-112.93-11.25-223-33.31-330.48-79.2q-161.19-68-315-207.14C457-157.3,356-272.73,255.19-399.79,154.42-526.54,53.87-664.93-48-796Z" fill="#aa8215"/>
<path d="M-90.56-733.18Q-69.24-763.54-48-796C53.87-664.93,154.42-526.54,255.19-399.79,356-272.73,457-157.3,559.9-64.88q154.19,138.95,315,207.15c107.42,45.9,217.49,68,330.33,79.26,113.27,12.73,229,12.2,346.57,20.53,117.57,7.86,237,24.57,357.29,60.95,120.21,35.91,241.2,91.48,361.22,166.22,120,74.26,239.05,167.7,354.82,268.5-29.67,11.81-60.13,30.62-91.27,55.51-113.35-91.32-230-174.36-347.68-239.28-117.7-65.34-236.43-112.55-354.48-142.09-118.06-30-235.44-42.27-351-47.67-115.58-5.83-229.33-4.75-340.7-17.85-111-11.8-219.33-35.63-324.93-84.2Q656.65,190.09,505.58,44C404.5-53.19,305.4-174.5,206.58-309.11,107.77-443.39,9.23-591-90.56-733.18Z" fill="#a14b24"/>
<path d="M-133.28-674.69q21.39-28.11,42.72-58.49C9.23-591,107.77-443.39,206.58-309.11,305.4-174.5,404.5-53.18,505.58,44Q657,190,815.08,262.16c105.58,48.57,213.82,72.41,324.79,84.25,111.39,13.1,225.17,12,340.78,17.82,115.57,5.39,233,17.68,351,47.65,118,29.53,236.79,76.74,354.49,142.08,117.69,64.92,234.34,148,347.69,239.28-31.15,24.88-63,55.82-95.45,91.75-110.58-85.74-224.54-161.94-339.64-220.6-115.12-59.06-231.36-100.58-347-126-115.69-25.83-230.8-35.58-344.18-40.13-113.4-4.93-225.07-4.67-334.4-19.52-109-13.68-215.31-40.52-318.94-93Q598.74,307.86,450.61,153.13C351.5,50.15,254.39-78,157.6-221,60.82-363.57-35.63-521-133.28-674.69Z" fill="#c82928"/>
<path d="M-176.13-620.84q21.45-25.73,42.85-53.85C-35.63-521,60.82-363.57,157.6-221c96.79,143,193.9,271.11,293,374.09Q599.05,307.85,754.22,385.76c103.62,52.45,209.87,79.3,318.8,93,109.35,14.85,221,14.57,334.47,19.5,113.4,4.53,228.53,14.27,344.24,40.1,115.68,25.43,231.94,67,347.06,126,115.1,58.66,229.07,134.86,339.64,220.6-32.45,35.92-65.51,76.82-99.07,121.51C2231.86,923.22,2120.85,851,2008.57,796c-112.3-55.36-225.87-93.47-339-116.75-113.14-23.65-225.82-32.49-336.87-37.61-111.07-5.48-220.5-7.24-327.64-25.05-106.84-16.7-211-47.65-312.57-105q-152.36-85.32-297.41-250C298.05,151.82,203,16,108.32-135.95,13.65-287.55-80.67-455.28-176.13-620.84Z" fill="#bb2128"/>
<path d="M-219.07-571.82q21.48-23.26,42.94-49C-80.67-455.28,13.65-287.56,108.32-135.95,203,16,298.05,151.82,395.09,261.51q145.35,164.78,297.4,250C794,568.91,898.17,599.85,1004.92,616.6c107.17,17.81,216.62,19.56,327.71,25,111.07,5.11,223.77,13.94,336.92,37.58a1406.15,1406.15,0,0,1,339,116.75c112.28,55,223.3,127.26,330.79,210.54-33.57,44.7-67.63,93.18-102.09,144.27-104.15-83.12-212-153.66-321.26-207a1375.26,1375.26,0,0,0-330.44-112.92c-110.43-23.06-220.55-32.33-329.14-39.2-108.61-7.2-215.68-12-320.51-33.78C831.37,737.15,729.41,701.19,630.05,638Q481,544,339.14,368.17C244.24,251,151.34,106.86,58.82-54.62-33.7-215.74-125.83-394.19-219.07-571.82Z" fill="#88181d"/>
<path d="M-262.06-527.78q21.5-20.76,43-44C-125.83-394.19-33.7-215.74,58.82-54.62,151.34,106.86,244.24,251,339.14,368.17S530.68,575.35,630,638c99.35,63.16,201.27,99.12,305.73,119.86,104.86,21.79,212,26.58,320.59,33.78,108.6,6.86,218.74,16.13,329.18,39.18A1374.64,1374.64,0,0,1,1916,943.76c109.28,53.35,217.12,123.89,321.27,207-34.46,51.09-69.31,104.78-104.44,159.93-100.59-84.42-205.09-154.77-311.21-207.92-106.15-53.46-213.91-89.72-321.5-113.07-107.62-23.66-215.07-34.41-321.1-44-106-9.85-210.66-18.48-313.09-45C763.77,875.24,664.13,833.55,567,763.89Q421.38,660.14,282.85,472.24C190.16,347,99.46,194,9.15,22.6-81.16-148.46-171.07-337.92-262.06-527.78Z" fill="#732c79"/>
<path d="M-305-488.84q21.49-18.2,43-38.94c91,189.86,180.9,379.32,271.21,550.38C99.46,194,190.16,347,282.85,472.25Q421.65,660.25,567,763.9c97.07,69.65,196.68,111.33,298.75,136.85,102.46,26.56,207.1,35.19,313.16,45,106,9.54,213.51,20.28,321.14,43.94,107.61,23.34,215.38,59.6,321.52,113.06,106.13,53.15,210.63,123.51,311.22,207.92-35.12,55.15-70.52,111.76-106.07,168.79-193.94-174.62-403.86-279.34-613.12-326.9-209.6-52.18-418.54-47.21-618.31-109.2-99.7-30.83-197-78.8-291.7-155.47Q361.46,773.62,226.33,573C135.92,439.26,47.46,277-40.61,95.33-128.67-86-216.33-286.66-305-488.84Z" fill="#401839"/>
<path d="M-348-455q21.45-15.61,42.95-33.8C-216.33-286.65-128.67-86-40.61,95.33,47.46,277,135.92,439.26,226.33,573S408.86,811.73,503.62,887.92c94.73,76.67,192,124.63,291.58,155.48,199.82,62,408.79,57,618.41,109.2,209.28,47.55,419.21,152.27,613.15,326.89-35.55,57-71.25,114.49-107,171.48-186.42-178.54-389.86-283.61-593.28-335.07-203.75-55.83-407.46-58.05-602.16-131.65-97.2-36.54-192-91.15-284.38-175.21Q301.38,883.66,169.69,669.78C81.59,527.2-4.59,355.39-90.38,163.28-176.17-28.46-261.56-240.5-348-455Z" fill="#211d51"/>
<path d="M-390.87-426.37q21.4-13,42.87-28.67C-261.56-240.5-176.17-28.46-90.38,163.28c85.79,192.11,172,363.93,260.07,506.5S347.58,925.46,440,1009c92.35,84,187.14,138.65,284.27,175.2,194.74,73.64,398.49,75.84,602.26,131.66,203.43,51.46,406.89,156.53,593.3,335.07-35.72,57-71.47,113.52-107.11,168.84-178.92-181.5-375.94-287.17-573.52-342.79-197.92-59.77-396.4-69.49-586-155.1-94.67-42.45-187-103.92-277-195.57Q241.24,989.55,113,762.09C27.27,610.47-56.6,428.93-140.1,226.26-223.6,24-306.71-199.49-390.87-426.37Z" fill="#253f90"/>
<path d="M-433.6-402.78q21.33-10.53,42.73-23.59C-306.71-199.49-223.6,24-140.1,226.26-56.6,428.93,27.27,610.47,113,762.1q128.43,227.52,263.14,364.24c89.94,91.65,182.27,153.1,276.87,195.56,189.63,85.65,388.14,95.35,586.07,155.13,197.6,55.6,394.63,161.28,573.55,342.78-35.64,55.33-71.17,109.46-106.47,161.84-171.62-182.73-362.37-288.59-554.23-348.09-192.19-63.5-385.47-80.64-569.94-178.34-92.15-48.39-182-116.78-269.55-216.13q-131.33-148.35-256-389.55c-83.41-160.78-165-352.13-246.17-565.41C-270.89,71.22-351.73-163.63-433.6-402.78Z" fill="#2e68b0"/>
<path d="M-476.16-384.16q21.23-8.08,42.56-18.62c81.87,239.15,162.71,474,243.9,686.91C-108.49,497.41-26.93,688.77,56.49,849.54q124.9,241.22,256,389.54c87.51,99.34,177.38,167.72,269.46,216.11,184.5,97.74,377.82,114.88,570,178.38,191.87,59.49,382.63,165.36,554.25,348.08q-53,78.58-105.06,151.56c-164.68-181.79-349.44-286.92-535.75-349.63-186.66-66.6-374.86-90.78-554.24-200.37C421.5,1529,334.08,1453.71,249,1346.69Q121.3,1186.82.13,931.83c-81.07-169.94-160.31-371.11-239.22-595C-318,113.35-396.55-132.85-476.16-384.16Z" fill="#058664"/>
<path d="M-518.49-370.38q21.11-5.72,42.33-13.78c79.61,251.31,158.17,497.51,237.07,721C-160.18,560.72-80.93,761.9.13,931.84S163.86,1240.12,249,1346.68c85.09,107,172.5,182.27,262.09,236.49C690.48,1692.8,878.7,1717,1065.37,1783.58c186.33,62.71,371.09,167.84,535.77,349.63q-52.07,72.78-102.92,139c-158.25-178.52-337.41-281.65-518.45-346.62-181.38-68.76-364.65-99.35-539-220.4-87.19-59.87-172.18-141.86-254.88-256.45Q61.75,1277.5-55.91,1008.82c-78.73-179.05-155.68-390-232.3-624.38C-364.84,150.43-441.14-107-518.49-370.38Z" fill="#75c047"/>
<path d="M-560.56-361.24a425.05,425.05,0,0,0,42.07-9.14C-441.14-107-364.84,150.43-288.21,384.44c76.62,234.39,153.57,445.33,232.3,624.38s159,325.78,241.75,439.91c82.69,114.57,167.67,196.54,254.81,256.39,174.42,121.11,357.71,151.7,539.11,220.46,181,65,360.21,168.11,518.46,346.62q-50.81,66.12-100.07,125.14c-152.5-173-326.53-272.73-502.65-338.81-176.46-69.81-355-106-524.55-237.91-84.8-65.21-167.41-153.7-247.75-275.67Q2.66,1362.66-111.54,1080.42C-188,892.39-262.63,671.78-337,427-411.36,182.59-485.43-86-560.56-361.24Z" fill="#9cc673"/>
</g>

<rect width="100%" height="100%" fill="#bbb" rx="20" opacity="0.4"/> 
</g>
</svg>