<svg xmlns="http://www.w3.org/2000/svg" version="1.1" xmlns:xlink="http://www.w3.org/1999/xlink" viewBox="0 0 700 700" style="overflow: hidden; display: block;" width="700" height="700" opacity="0.99">
<defs>

<linearGradient id="two-31" x1="350" y1="-350" x2="350" y2="350" spreadMethod="pad" gradientUnits="userSpaceOnUse">
<stop offset="0%" stop-color="hsl(185, 53%, 55%)" stop-opacity="1" style="--darkreader-inline-stopcolor: #2c8891;" data-darkreader-inline-stopcolor=""></stop>
<stop offset="100%" stop-color="hsl(0, 73%, 55%)" stop-opacity="1" style="--darkreader-inline-stopcolor: #a41919;" data-darkreader-inline-stopcolor=""></stop>
</linearGradient>

<linearGradient id="two-32" x1="350" y1="-350" x2="350" y2="350" spreadMethod="pad" gradientUnits="userSpaceOnUse">
<stop offset="0%" stop-color="hsl(162, 100%, 58%)" stop-opacity="1" style="--darkreader-inline-stopcolor: #00b38b;" data-darkreader-inline-stopcolor=""></stop>
<stop offset="100%" stop-color="hsl(270, 73%, 53%)" stop-opacity="1" style="--darkreader-inline-stopcolor: #611aa8;" data-darkreader-inline-stopcolor=""></stop>
</linearGradient>

<linearGradient id="two-33" x1="350" y1="-350" x2="350" y2="350" spreadMethod="pad" gradientUnits="userSpaceOnUse">
<stop offset="0%" stop-color="hsl(30, 100%, 50%)" stop-opacity="1" style="--darkreader-inline-stopcolor: #cc6600;" data-darkreader-inline-stopcolor=""></stop>
<stop offset="100%" stop-color="hsl(118, 100%, 70%)" stop-opacity="1" style="--darkreader-inline-stopcolor: #278f00;" data-darkreader-inline-stopcolor=""></stop>
</linearGradient>

<linearGradient id="two-34" x1="350" y1="-350" x2="350" y2="350" spreadMethod="pad" gradientUnits="userSpaceOnUse">
<stop offset="0%" stop-color="hsl(305, 77%, 50%)" stop-opacity="1" style="--darkreader-inline-stopcolor: #b517a7;" data-darkreader-inline-stopcolor=""></stop>
<stop offset="100%" stop-color="hsl(37, 91%, 55%)" stop-opacity="1" style="--darkreader-inline-stopcolor: #b47208;" data-darkreader-inline-stopcolor=""></stop>
</linearGradient>

<linearGradient id="two-35" x1="350" y1="-350" x2="350" y2="350" spreadMethod="pad" gradientUnits="userSpaceOnUse">
<stop offset="0%" stop-color="hsl(206, 75%, 49%)" stop-opacity="1" style="--darkreader-inline-stopcolor: #196eaf;" data-darkreader-inline-stopcolor=""></stop>
<stop offset="100%" stop-color="hsl(331, 90%, 56%)" stop-opacity="1" style="--darkreader-inline-stopcolor: #b00959;" data-darkreader-inline-stopcolor=""></stop>
</linearGradient>

<linearGradient id="two-36" x1="350" y1="-350" x2="350" y2="350" spreadMethod="pad" gradientUnits="userSpaceOnUse">
<stop offset="0%" stop-color="hsl(105, 72%, 59%)" stop-opacity="1" style="--darkreader-inline-stopcolor: #509818;" data-darkreader-inline-stopcolor=""></stop>
<stop offset="100%" stop-color="hsl(167, 72%, 60%)" stop-opacity="1" style="--darkreader-inline-stopcolor: #199581;" data-darkreader-inline-stopcolor=""></stop>
</linearGradient>

<linearGradient id="two-37" x1="350" y1="-350" x2="350" y2="350" spreadMethod="pad" gradientUnits="userSpaceOnUse">
<stop offset="0%" stop-color="hsl(347, 88%, 52%)" stop-opacity="1" style="--darkreader-inline-stopcolor: #ba0c32;" data-darkreader-inline-stopcolor=""></stop>
<stop offset="100%" stop-color="hsl(55, 94%, 54%)" stop-opacity="1" style="--darkreader-inline-stopcolor: #8c8104;" data-darkreader-inline-stopcolor=""></stop>
</linearGradient>

<filter id="blurry-filter" x="-100%" y="-100%" width="400%" height="400%" filterUnits="objectBoundingBox" primitiveUnits="userSpaceOnUse" color-interpolation-filters="sRGB">
  <feGaussianBlur stdDeviation="16 32" x="0%" y="0%" width="100%" height="100%" in="SourceGraphic" edgeMode="none" result="blur"></feGaussianBlur>
</filter>

</defs>

<g id="two-0" transform="matrix(1 0 0 1 0 0)" filter="url(#blurry-filter)" opacity="1" >

<rect width="100%" height="100%" fill="#fc8" rx="20" opacity="0.6"/>   

<path transform="matrix(1 0 0 1 350 350)" id="two-247" d="M 174.324103 53.771864 C 172.790136 93.627872 237.480434 119.493514 233.469562 159.176852 C 230.65778 186.996453 205.292614 216.941762 178.05882 223.278698 C 140.197053 232.08862 105.381505 162.144384 69.594636 177.324242 C 29.758309 194.221774 63.892299 287.208723 22.458384 299.686312 C -7.850521 308.813666 -24.489609 249.291125 -55.715021 244.103452 C -90.648088 238.299803 -128.000276 292.525865 -158.57914 274.667127 C -189.332495 256.706482 -160.629892 197.462968 -182.636082 169.461519 C -201.570198 145.369085 -244.046185 149.636692 -265.697123 127.95299 C -286.995394 106.622489 -313.06828 75.580876 -306.405927 46.183262 C -297.232148 5.703986 -226.722008 5.431086 -207.287502 -31.243564 C -196.99889 -50.659095 -200.241838 -75.860003 -202.833986 -97.6797 C -208.038701 -141.490977 -253.429302 -182.452458 -242.780538 -225.267419 C -234.742676 -257.584853 -202.091901 -284.227835 -171.026767 -296.227049 C -138.849986 -308.655648 -97.441418 -307.211317 -66.595336 -291.773231 C -28.814334 -272.864301 -27.78019 -194.273246 14.437497 -192.655012 C 64.074676 -190.752382 72.104282 -319.683805 118.352626 -301.557576 C 164.548436 -283.451937 89.169521 -189.617265 120.593213 -151.219108 C 137.006107 -131.163385 174.468084 -146.737653 197.333427 -134.539654 C 220.760107 -122.042198 251.55084 -105.037662 255.313965 -78.753929 C 259.558994 -49.104316 225.958364 -25.467564 210.193751 -0.000001 C 198.966883 18.136883 175.144457 32.457171 174.324103 53.771864 Z " fill="url(#two-31)" stroke="undefined" stroke-width="1" stroke-opacity="1" fill-opacity="0.5" visibility="visible" stroke-linecap="butt" stroke-linejoin="miter" stroke-miterlimit="4"></path>

<path transform="matrix(1 0 0 1 350 350)" id="two-257" d="M 214.561833 66.18356 C 209.093974 88.513444 165.892373 86.58848 159.309664 108.615489 C 143.119777 162.789963 256.7657 231.604306 215.656297 270.424443 C 181.702985 302.486991 129.566462 229.931851 84.896821 216.313572 C 62.436657 209.46622 38.031682 207.501547 15.153889 202.214603 C -4.072881 197.771393 -23.069654 185.278902 -42.71469 187.145282 C -75.490542 190.259159 -104.669757 247.123229 -132.801098 230.018248 C -162.010304 212.257883 -122.556243 157.778622 -136.321022 126.487423 C -144.063463 108.886684 -161.318905 95.396146 -177.910168 85.677021 C -217.367341 62.563096 -301.310602 91.570338 -310.936236 46.866096 C -319.449022 7.330239 -223.506981 7.20883 -217.841177 -32.834275 C -212.005552 -74.077586 -307.783286 -102.09606 -287.188535 -138.302709 C -263.471877 -179.997832 -174.1249 -96.133812 -141.978261 -131.736575 C -107.636929 -169.769986 -195.190773 -244.125716 -164.741972 -285.341465 C -145.647381 -311.188061 -99.290175 -309.111223 -68.473468 -300.001861 C -32.385809 -289.334416 -15.280206 -243.957458 16.808997 -224.300487 C 35.465562 -212.871983 56.664035 -200.068945 78.542681 -200.123489 C 120.6766 -200.22853 155.148005 -249.969684 197.195846 -247.275771 C 231.564332 -245.073857 273.568255 -227.723082 288.467775 -196.673999 C 304.938127 -162.351463 286.702845 -116.661449 268.979079 -82.969059 C 250.705922 -48.232289 190.846319 -38.604518 183.758112 -0.000001 C 179.407599 23.69421 220.291485 42.78455 214.561833 66.18356 Z " fill="url(#two-32)" stroke="undefined" stroke-width="1" stroke-opacity="1" fill-opacity="0.5" visibility="visible" stroke-linecap="butt" stroke-linejoin="miter" stroke-miterlimit="4"></path> -->

<path transform="matrix(1 0 0 1 350 350)" id="two-263" d="M 177.433101 54.730863 C 165.076229 89.727433 246.732784 123.387935 227.781121 155.298538 C 210.729933 184.009142 159.650629 153.695458 126.653762 158.818794 C 107.029295 161.865833 83.347962 161.643507 68.706356 175.06094 C 36.722939 204.370249 63.155181 283.3786 22.337369 298.071482 C -6.25273 308.362846 -35.667823 273.404558 -57.60356 252.377684 C -78.157365 232.675486 -86.352045 202.042713 -103.54815 179.350655 C -115.7156 163.294433 -127.740175 145.253134 -144.502981 134.079172 C -166.978833 119.096936 -197.249296 118.314696 -221.657614 106.74468 C -255.448522 90.727137 -296.344543 78.090098 -318.570198 48.016731 C -338.762038 20.695304 -362.111016 -23.23624 -343.733248 -51.809451 C -312.667134 -100.110129 -214.390171 -43.762928 -172.541443 -83.09158 C -157.029589 -97.669329 -158.993855 -124.50868 -157.032588 -145.704948 C -152.75413 -191.944103 -206.951749 -265.799636 -165.227998 -286.183287 C -115.949 -310.257965 -95.133169 -175.368312 -40.301016 -176.570284 C -13.948402 -177.147958 -6.146186 -219.930632 17.373352 -231.831274 C 40.99523 -243.7837 74.124699 -259.93071 96.401426 -245.626829 C 123.352094 -228.321811 93.400284 -167.973833 121.011722 -151.7439 C 168.899964 -123.595314 239.66315 -227.067069 284.03927 -193.654696 C 311.762687 -172.780742 284.498734 -123.146992 287.026745 -88.536026 C 289.169853 -59.194758 311.903465 -25.635374 297.469805 -0.000001 C 276.110647 37.935632 191.927901 13.679351 177.433101 54.730863 Z " fill="url(#two-33)" stroke="undefined" stroke-width="1" stroke-opacity="1" fill-opacity="0.5" visibility="visible" stroke-linecap="butt" stroke-linejoin="miter" stroke-miterlimit="4"></path>

<path transform="matrix(1 0 0 1 350 350)" id="two-267" d="M 308.954512 95.299845 C 294.639397 139.852078 200.29776 80.546533 168.509164 114.887602 C 148.404836 136.606212 182.909059 182.499359 163.004556 204.401248 C 145.490351 223.672977 107.406047 203.358555 85.060982 216.731848 C 55.719957 234.292151 55.289969 289.827236 22.427892 299.279423 C -5.892986 307.425415 -36.294105 283.601152 -61.098422 267.689674 C -84.332896 252.785219 -95.03751 219.29259 -120.615299 208.911824 C -152.862139 195.824418 -206.506735 238.544726 -226.070716 209.762969 C -251.159112 172.85391 -163.016562 127.324149 -175.296421 84.418306 C -182.715758 58.495133 -220.786158 53.771267 -241.395872 36.384573 C -272.478922 10.1624 -318.000304 -10.700194 -329.595478 -49.678525 C -339.088556 -81.590454 -334.38758 -128.326357 -307.639541 -148.151395 C -264.791848 -179.90913 -186.833788 -101.040294 -146.485987 -135.919133 C -120.173048 -158.665472 -158.285892 -212.00119 -139.178721 -241.064616 C -123.817298 -264.43048 -91.001916 -273.078354 -63.901357 -279.970135 C -36.705409 -286.886175 -2.733067 -296.547789 21.11487 -281.758364 C 53.254027 -261.827095 34.6204 -191.723979 69.880489 -178.052583 C 105.662905 -164.178665 139.053328 -224.428785 177.378994 -222.426225 C 208.478238 -220.801254 247.732788 -205.98215 260.380765 -177.524601 C 274.875433 -144.912056 245.110426 -106.615275 234.836563 -72.437487 C 227.522721 -48.10672 202.906082 -24.723041 208.758416 -0.000001 C 219.269828 44.405199 322.913794 51.855053 308.954512 95.299845 Z " fill="url(#two-34)" stroke="undefined" stroke-width="1" stroke-opacity="1" fill-opacity="0.5" visibility="visible" stroke-linecap="butt" stroke-linejoin="miter" stroke-miterlimit="4"></path>

<path transform="matrix(1 0 0 1 350 350)" id="two-269" d="M 180.850198 55.784898 C 171.958431 82.882621 217.790033 114.116337 203.962368 139.059188 C 191.398125 161.723034 150.075813 146.743607 128.663562 161.339004 C 109.384693 174.480209 107.215083 209.356414 85.209911 217.111313 C 62.77037 225.01929 38.769129 202.200871 15.031814 200.58563 C -5.531032 199.1864 -27.414017 200.561274 -47.140028 206.533957 C -84.59296 217.874032 -119.291593 284.663812 -151.621781 262.616627 C -189.272565 236.941127 -121.113103 168.817397 -135.249718 125.493398 C -141.078553 107.629969 -158.459964 94.309604 -174.047898 83.817049 C -205.787921 62.452197 -274.842682 80.071782 -282.402768 42.565368 C -289.348952 8.104591 -208.351133 4.076979 -205.303692 -30.944553 C -201.558217 -73.987955 -283.399102 -93.097116 -283.03323 -136.30162 C -282.773294 -166.996653 -251.280642 -192.024024 -226.549838 -210.20753 C -201.960098 -228.287318 -165.497086 -225.651031 -139.661745 -241.901237 C -112.705361 -258.85657 -102.29349 -306.240198 -70.595214 -309.297838 C -35.477776 -312.685293 -16.338801 -253.98193 18.7824 -250.633715 C 52.51062 -247.418297 84.628502 -307.115612 113.713893 -289.738275 C 150.813967 -267.57249 93.682369 -186.785013 127.173186 -159.470132 C 159.306485 -133.262433 224.352612 -202.66912 252.205055 -171.950496 C 274.886964 -146.934483 230.945812 -105.354835 232.148675 -71.608383 C 233.021729 -47.114757 259.521222 -23.279116 251.854233 -0.000001 C 242.532798 28.302473 190.140631 27.472232 180.850198 55.784898 Z " fill="url(#two-35)" stroke="undefined" stroke-width="1" stroke-opacity="1" fill-opacity="0.5" visibility="visible" stroke-linecap="butt" stroke-linejoin="miter" stroke-miterlimit="4"></path>

<path transform="matrix(1 0 0 1 350 350)" id="two-271" d="M 299.965111 92.526983 C 286.207387 119.785834 274.859515 154.829015 247.777648 168.93194 C 214.382557 186.322487 169.486384 155.970882 133.68839 167.639939 C 113.127399 174.342197 101.960043 200.849737 81.185281 206.856723 C 60.174208 212.932039 34.865967 192.264097 15.111784 201.652755 C -32.728761 224.390144 -24.494897 345.358732 -76.161986 333.687462 C -127.545414 322.08027 -62.948533 211.817881 -101.676626 176.109081 C -121.429241 157.896406 -165.207255 189.922529 -182.836765 169.647725 C -201.063743 148.685804 -176.720111 113.379807 -177.79707 85.622555 C -178.541318 66.440483 -177.392417 45.272827 -185.76848 28.000093 C -198.847018 1.030128 -252.035463 -7.698224 -248.708801 -37.486821 C -245.544597 -65.820691 -198.376994 -66.662273 -176.576092 -85.034565 C -161.998687 -97.319394 -143.072076 -109.087948 -137.069287 -127.181712 C -122.741036 -170.370296 -190.372172 -238.922151 -152.536159 -264.200376 C -119.435828 -286.314694 -85.74555 -196.782214 -46.976154 -205.815978 C -7.613076 -214.988079 -15.154596 -292.911886 22.958781 -306.363647 C 51.251732 -316.34938 81.726084 -290.231051 110.22387 -280.845843 C 139.601731 -271.170801 180.139082 -273.649754 198.210638 -248.54828 C 219.662627 -218.75137 190.303386 -172.323201 201.433793 -137.335235 C 208.931077 -113.767836 226.454779 -93.370566 242.94348 -74.93814 C 268.590756 -46.267505 322.028747 -37.089661 332.2339 -0.000001 C 340.812694 31.178813 314.535482 63.657995 299.965111 92.526983 Z " fill="url(#two-36)" stroke="undefined" stroke-width="1" stroke-opacity="1" fill-opacity="0.5" visibility="visible" stroke-linecap="butt" stroke-linejoin="miter" stroke-miterlimit="4"></path>

<path transform="matrix(1 0 0 1 350 350)" id="two-273" d="M 246.801207 76.12809 C 256.460864 112.582381 300.304119 159.691066 274.338376 187.040738 C 240.070097 223.135456 165.644991 127.894818 126.273147 158.341518 C 89.438777 186.825961 143.496244 260.591689 117.413127 299.163769 C 98.633623 326.935162 57.974008 351.890835 25.692652 342.844614 C -19.010211 330.317508 -8.946181 243.967242 -51.39163 225.16144 C -77.813632 213.454956 -109.023815 240.19379 -137.891022 238.834254 C -169.757227 237.333477 -203.434619 229.934693 -231.535616 214.833655 C -260.755585 199.1313 -296.96746 179.296697 -306.083543 147.402065 C -316.06643 112.474724 -271.328698 77.619958 -275.801683 41.570415 C -280.081306 7.079258 -321.868582 -15.445766 -328.642535 -49.534892 C -335.270526 -82.889479 -332.901464 -122.78935 -314.94995 -151.671902 C -296.511303 -181.338212 -261.779429 -206.496456 -227.106676 -210.724201 C -180.562915 -216.39941 -134.862016 -139.850031 -93.595146 -162.111549 C -57.248503 -181.718838 -100.792887 -263.652843 -64.798021 -283.898679 C -39.387706 -298.191082 -5.045038 -272.765624 19.231143 -256.621773 C 42.80184 -240.947072 50.945082 -206.206581 75.207357 -191.625223 C 94.273974 -180.166399 118.903616 -179.679017 140.955256 -176.752302 C 177.465745 -171.906595 221.564397 -192.166765 252.4675 -172.129428 C 277.738964 -155.743604 295.85857 -120.412984 293.128506 -90.41817 C 289.748313 -53.280486 232.180242 -36.659733 225.346698 -0.000001 C 220.563764 25.658881 240.115731 50.897968 246.801207 76.12809 Z " fill="url(#two-37)" stroke="undefined" stroke-width="1" stroke-opacity="1" fill-opacity="0.5" visibility="visible" stroke-linecap="butt" stroke-linejoin="miter" stroke-miterlimit="4"></path>


</g>

</svg>